<svg width="139" height="39" viewBox="0 0 139 39" fill="none" xmlns="http://www.w3.org/2000/svg">
<path d="M103.436 24.6133C103.436 23.5087 104.331 22.6133 105.436 22.6133H108.03C109.135 22.6133 110.03 23.5087 110.03 24.6133V39.0019H103.436V24.6133Z" fill="#128B9B"/>
<path d="M112.828 21.3398C112.828 20.2353 113.724 19.3398 114.828 19.3398H117.423C118.528 19.3398 119.423 20.2353 119.423 21.3398V39.0061H112.828V21.3398Z" fill="#128B9B"/>
<path d="M122.221 16.9648C122.221 15.8603 123.116 14.9648 124.221 14.9648H126.816C127.92 14.9648 128.816 15.8603 128.816 16.9648V39.0014H122.221V16.9648Z" fill="#128B9B"/>
<path d="M94.043 27.8906C94.043 26.7861 94.9384 25.8906 96.043 25.8906H98.6378C99.7424 25.8906 100.638 26.7861 100.638 27.8906V39.0015H94.043V27.8906Z" fill="#128B9B"/>
<path d="M131.613 28C131.613 26.8954 132.509 26 133.613 26H136.208C137.313 26 138.208 26.8954 138.208 28V39H131.613V28Z" fill="#128B9B"/>
<path d="M10.041 27.8906C10.041 26.7861 10.9364 25.8906 12.041 25.8906H14.6359C15.7405 25.8906 16.6359 26.7861 16.6359 27.8906V39.0015H10.041V27.8906Z" fill="#128B9B"/>
<path d="M19.4336 24.6172C19.4336 23.5126 20.329 22.6172 21.4336 22.6172H24.0285C25.133 22.6172 26.0285 23.5126 26.0285 24.6172V39.0058H19.4336V24.6172Z" fill="#128B9B"/>
<path d="M28.8262 21.3359C28.8262 20.2314 29.7216 19.3359 30.8262 19.3359H33.421C34.5256 19.3359 35.421 20.2314 35.421 21.3359V39.0022H28.8262V21.3359Z" fill="#128B9B"/>
<path d="M0.648438 27.8906C0.648438 26.7861 1.54387 25.8906 2.64844 25.8906H5.2433C6.34787 25.8906 7.2433 26.7861 7.2433 27.8906V39.0015H0.648438V27.8906Z" fill="#128B9B"/>
<path d="M38.2188 21.3359C38.2188 20.2314 39.1142 19.3359 40.2188 19.3359H42.8136C43.9182 19.3359 44.8136 20.2314 44.8136 21.3359V39.0022H38.2188V21.3359Z" fill="#128B9B"/>
<path d="M56.7363 3.85156C56.7363 2.74699 57.6318 1.85156 58.7363 1.85156H61.3312C62.4358 1.85156 63.3312 2.74699 63.3312 3.85156V38.999H56.7363V3.85156Z" fill="#69BDD3"/>
<path d="M66.1289 27.8867C66.1289 26.7821 67.0243 25.8867 68.1289 25.8867H70.7238C71.8283 25.8867 72.7238 26.7821 72.7238 27.8867V38.9976H66.1289V27.8867Z" fill="#128B9B"/>
<path d="M75.5215 24.6094C75.5215 23.5048 76.4169 22.6094 77.5215 22.6094H80.1164C81.2209 22.6094 82.1164 23.5048 82.1164 24.6094V38.9979H75.5215V24.6094Z" fill="#128B9B"/>
<path d="M47.3438 2.14063C47.3438 1.03606 48.2392 0.140625 49.3438 0.140625H51.9386C53.0432 0.140625 53.9386 1.03606 53.9386 2.14062V38.8129H47.3438V2.14063Z" fill="#128B9B"/>
<path d="M84.9141 10C84.9141 8.89543 85.8095 8 86.9141 8H89.5089C90.6135 8 91.5089 8.89543 91.5089 10V39H84.9141V10Z" fill="#128B9B"/>
</svg>
