<svg width="16" height="16" viewBox="0 0 16 16" fill="none" xmlns="http://www.w3.org/2000/svg">
<path fill-rule="evenodd" clip-rule="evenodd" d="M11 15C13.2091 15 15 13.2091 15 11C15 8.79086 13.2091 7 11 7C8.79086 7 7 8.79086 7 11C7 13.2091 8.79086 15 11 15ZM16 11C16 13.7614 13.7614 16 11 16C8.23858 16 6 13.7614 6 11C6 8.23858 8.23858 6 11 6C13.7614 6 16 8.23858 16 11Z" fill="#5C5E69"/>
<path d="M1 0C0.447715 0 0 0.447716 0 1V9C0 9.55229 0.447715 10 1 10H5.08296C5.1407 9.65585 5.22773 9.32163 5.34141 9H3C3 7.89543 2.10457 7 1 7V3C2.10457 3 3 2.10457 3 1H13C13 2.10457 13.8954 3 15 3V6.52779C15.3801 6.86799 15.7166 7.25594 16 7.68221V1C16 0.447715 15.5523 0 15 0H1Z" fill="#5C5E69"/>
<path d="M9.9983 5.08325C9.99943 5.05564 10 5.02789 10 5C10 3.89543 9.10457 3 8 3C6.89543 3 6 3.89543 6 5C6 5.6845 6.34387 6.28869 6.86829 6.64924C7.71486 5.84504 8.79591 5.28533 9.9983 5.08325Z" fill="#5C5E69"/>
<path d="M8.93509 12.032C8.85243 12.032 8.78843 12.0093 8.74309 11.964C8.70043 11.916 8.67909 11.8507 8.67909 11.768V9.44C8.67909 9.35467 8.70176 9.29067 8.74709 9.248C8.79243 9.20267 8.85643 9.18 8.93909 9.18H9.90309C10.2124 9.18 10.4511 9.25467 10.6191 9.404C10.7871 9.55067 10.8711 9.75733 10.8711 10.024C10.8711 10.1973 10.8324 10.3467 10.7551 10.472C10.6804 10.5973 10.5711 10.6933 10.4271 10.76C10.2831 10.8267 10.1084 10.86 9.90309 10.86L9.93909 10.8H10.0711C10.1804 10.8 10.2751 10.8267 10.3551 10.88C10.4378 10.9333 10.5098 11.0173 10.5711 11.132L10.8711 11.688C10.9031 11.744 10.9178 11.7987 10.9151 11.852C10.9124 11.9053 10.8924 11.9493 10.8551 11.984C10.8178 12.016 10.7631 12.032 10.6911 12.032C10.6191 12.032 10.5604 12.0173 10.5151 11.988C10.4698 11.956 10.4298 11.908 10.3951 11.844L9.99109 11.1C9.94309 11.0093 9.88576 10.9493 9.81909 10.92C9.75509 10.888 9.67243 10.872 9.57109 10.872H9.19109V11.768C9.19109 11.8507 9.16976 11.916 9.12709 11.964C9.08443 12.0093 9.02043 12.032 8.93509 12.032ZM9.19109 10.492H9.81509C9.99909 10.492 10.1378 10.4547 10.2311 10.38C10.3271 10.3027 10.3751 10.188 10.3751 10.036C10.3751 9.88667 10.3271 9.77467 10.2311 9.7C10.1378 9.62267 9.99909 9.584 9.81509 9.584H9.19109V10.492ZM12.3855 12.04C12.2681 12.04 12.1508 12.0307 12.0335 12.012C11.9161 11.996 11.8055 11.9707 11.7015 11.936C11.5975 11.8987 11.5041 11.8533 11.4215 11.8C11.3735 11.768 11.3401 11.7293 11.3215 11.684C11.3028 11.6387 11.2961 11.5947 11.3015 11.552C11.3095 11.5067 11.3268 11.468 11.3535 11.436C11.3828 11.4013 11.4188 11.38 11.4615 11.372C11.5041 11.364 11.5508 11.376 11.6015 11.408C11.7188 11.4773 11.8428 11.528 11.9735 11.56C12.1041 11.592 12.2415 11.608 12.3855 11.608C12.5961 11.608 12.7495 11.5733 12.8455 11.504C12.9415 11.432 12.9895 11.34 12.9895 11.228C12.9895 11.1347 12.9548 11.0613 12.8855 11.008C12.8188 10.9547 12.7028 10.9107 12.5375 10.876L12.0975 10.784C11.8441 10.7307 11.6548 10.6413 11.5295 10.516C11.4068 10.388 11.3455 10.22 11.3455 10.012C11.3455 9.88133 11.3721 9.76267 11.4255 9.656C11.4788 9.54933 11.5535 9.45733 11.6495 9.38C11.7481 9.30267 11.8641 9.244 11.9975 9.204C12.1335 9.16133 12.2828 9.14 12.4455 9.14C12.6055 9.14 12.7575 9.16 12.9015 9.2C13.0455 9.24 13.1748 9.29867 13.2895 9.376C13.3321 9.40533 13.3601 9.44133 13.3735 9.484C13.3895 9.52667 13.3935 9.56933 13.3855 9.612C13.3775 9.652 13.3588 9.68667 13.3295 9.716C13.3001 9.74533 13.2628 9.76267 13.2175 9.768C13.1748 9.77333 13.1255 9.76 13.0695 9.728C12.9708 9.672 12.8708 9.632 12.7695 9.608C12.6681 9.584 12.5588 9.572 12.4415 9.572C12.3188 9.572 12.2135 9.58933 12.1255 9.624C12.0375 9.65867 11.9695 9.708 11.9215 9.772C11.8761 9.83333 11.8535 9.90667 11.8535 9.992C11.8535 10.088 11.8855 10.1653 11.9495 10.224C12.0135 10.28 12.1228 10.324 12.2775 10.356L12.7135 10.448C12.9775 10.504 13.1735 10.592 13.3015 10.712C13.4321 10.832 13.4975 10.992 13.4975 11.192C13.4975 11.32 13.4708 11.436 13.4175 11.54C13.3668 11.644 13.2921 11.7333 13.1935 11.808C13.0975 11.8827 12.9815 11.94 12.8455 11.98C12.7095 12.02 12.5561 12.04 12.3855 12.04Z" fill="#5C5E69"/>
</svg>
