<svg width="35" height="27" viewBox="0 0 35 27" fill="none" xmlns="http://www.w3.org/2000/svg">
<rect x="0.652344" width="33.5739" height="27" rx="5" fill="#EDF3FF"/>
<g clip-path="url(#clip0_6112_99398)">
<path d="M11.0845 9.91735L11.2045 20.0103C11.2112 20.5738 11.4264 21.1122 11.8028 21.5071C12.1791 21.9019 12.6859 22.1208 13.2114 22.1156L21.1383 22.0376C21.6638 22.0325 22.1652 21.8037 22.5321 21.4015C22.8991 20.9994 23.1014 20.4569 23.0947 19.8933L22.9432 7.14436C22.9365 6.58082 22.7213 6.04242 22.3449 5.64759C21.9686 5.25276 21.4618 5.03385 20.9363 5.03902L15.4866 5.09263L11.0845 9.91735ZM14.0571 9.88811C14.4513 9.88423 14.8273 9.71262 15.1025 9.41101C15.3777 9.10941 15.5295 8.70252 15.5244 8.27987L15.4992 6.15504L20.9489 6.10144C21.2117 6.09885 21.465 6.20831 21.6532 6.40572C21.8414 6.60313 21.949 6.87234 21.9524 7.15411L22.1039 19.9031C22.1072 20.1848 22.006 20.4561 21.8226 20.6572C21.6391 20.8582 21.3884 20.9726 21.1256 20.9752L13.1988 21.0532C12.936 21.0558 12.6827 20.9463 12.4945 20.7489C12.3063 20.5515 12.1987 20.2823 12.1953 20.0005L12.0754 9.9076L14.0571 9.88811Z" fill="#3DABC5"/>
</g>
<defs>
<clipPath id="clip0_6112_99398">
<rect width="15.8544" height="16.9998" fill="white" transform="matrix(-0.999952 0.00983584 0.0118826 0.999929 24.9004 5)"/>
</clipPath>
</defs>
</svg>
