<svg width="18" height="18" viewBox="0 0 18 18" fill="none" xmlns="http://www.w3.org/2000/svg">
<path fill-rule="evenodd" clip-rule="evenodd" d="M9 4.5C9.31066 4.5 9.5625 4.75184 9.5625 5.0625V5.77572L10.1802 5.41911C10.4492 5.26378 10.7932 5.35596 10.9486 5.625C11.1039 5.89404 11.0117 6.23806 10.7427 6.39339L10.125 6.75L10.7427 7.10661C11.0117 7.26194 11.1039 7.60596 10.9486 7.875C10.7932 8.14404 10.4492 8.23622 10.1802 8.08089L9.5625 7.72428V8.4375C9.5625 8.74816 9.31066 9 9 9C8.68934 9 8.4375 8.74816 8.4375 8.4375V7.72428L7.81983 8.08089C7.55079 8.23622 7.20677 8.14404 7.05144 7.875C6.89611 7.60596 6.98829 7.26194 7.25733 7.10661L7.875 6.75L7.25733 6.39339C6.98829 6.23806 6.89611 5.89404 7.05144 5.625C7.20677 5.35596 7.55079 5.26378 7.81983 5.41911L8.4375 5.77572V5.0625C8.4375 4.75184 8.68934 4.5 9 4.5ZM5.625 10.6875C5.625 10.3768 5.87684 10.125 6.1875 10.125H11.8125C12.1232 10.125 12.375 10.3768 12.375 10.6875C12.375 10.9982 12.1232 11.25 11.8125 11.25H6.1875C5.87684 11.25 5.625 10.9982 5.625 10.6875ZM5.625 12.9375C5.625 12.6268 5.87684 12.375 6.1875 12.375H11.8125C12.1232 12.375 12.375 12.6268 12.375 12.9375C12.375 13.2482 12.1232 13.5 11.8125 13.5H6.1875C5.87684 13.5 5.625 13.2482 5.625 12.9375Z" fill="#5C5E69"/>
<path d="M3.375 0H14.625C15.8676 0 16.875 1.00736 16.875 2.25V15.75C16.875 16.9926 15.8676 18 14.625 18H3.375C2.13236 18 1.125 16.9926 1.125 15.75V14.625H2.25V15.75C2.25 16.3713 2.75368 16.875 3.375 16.875H14.625C15.2463 16.875 15.75 16.3713 15.75 15.75V2.25C15.75 1.62868 15.2463 1.125 14.625 1.125H3.375C2.75368 1.125 2.25 1.62868 2.25 2.25V3.375H1.125V2.25C1.125 1.00736 2.13236 0 3.375 0Z" fill="#5C5E69"/>
<path d="M1.125 5.625V5.0625C1.125 4.75184 1.37684 4.5 1.6875 4.5C1.99816 4.5 2.25 4.75184 2.25 5.0625V5.625H2.8125C3.12316 5.625 3.375 5.87684 3.375 6.1875C3.375 6.49816 3.12316 6.75 2.8125 6.75H0.5625C0.25184 6.75 0 6.49816 0 6.1875C0 5.87684 0.25184 5.625 0.5625 5.625H1.125Z" fill="#5C5E69"/>
<path d="M1.125 9V8.4375C1.125 8.12684 1.37684 7.875 1.6875 7.875C1.99816 7.875 2.25 8.12684 2.25 8.4375V9H2.8125C3.12316 9 3.375 9.25184 3.375 9.5625C3.375 9.87316 3.12316 10.125 2.8125 10.125H0.5625C0.25184 10.125 0 9.87316 0 9.5625C0 9.25184 0.25184 9 0.5625 9H1.125Z" fill="#5C5E69"/>
<path d="M1.125 12.375V11.8125C1.125 11.5018 1.37684 11.25 1.6875 11.25C1.99816 11.25 2.25 11.5018 2.25 11.8125V12.375H2.8125C3.12316 12.375 3.375 12.6268 3.375 12.9375C3.375 13.2482 3.12316 13.5 2.8125 13.5H0.5625C0.25184 13.5 0 13.2482 0 12.9375C0 12.6268 0.25184 12.375 0.5625 12.375H1.125Z" fill="#5C5E69"/>
</svg>
