<svg width="29" height="29" viewBox="0 0 29 29" fill="none" xmlns="http://www.w3.org/2000/svg">
<rect width="29" height="29" rx="5" fill="#272A3A"/>
<path d="M14.5 11.8628C13.0436 11.8628 11.8628 13.0435 11.8628 14.5C11.8628 15.9565 13.0436 17.1372 14.5 17.1372C15.9565 17.1372 17.1372 15.9565 17.1372 14.5C17.1372 13.0435 15.9565 11.8628 14.5 11.8628ZM12.6753 14.5C12.6753 13.4922 13.4923 12.6753 14.5 12.6753C15.5078 12.6753 16.3247 13.4922 16.3247 14.5C16.3247 15.5077 15.5078 16.3247 14.5 16.3247C13.4923 16.3247 12.6753 15.5077 12.6753 14.5Z" fill="white"/>
<path d="M15.9596 9.09149C15.5307 7.63617 13.4693 7.63617 13.0404 9.09149L12.9641 9.35021C12.8364 9.78359 12.3414 9.98864 11.9446 9.77251L11.7077 9.64349C10.3753 8.91774 8.91774 10.3753 9.64349 11.7077L9.77251 11.9446C9.98864 12.3414 9.78359 12.8364 9.35021 12.9641L9.09149 13.0404C7.63617 13.4693 7.63617 15.5307 9.09149 15.9596L9.35021 16.0359C9.78359 16.1636 9.98864 16.6586 9.77251 17.0554L9.64349 17.2923C8.91774 18.6247 10.3753 20.0823 11.7077 19.3565L11.9446 19.2275C12.3414 19.0114 12.8364 19.2164 12.9641 19.6498L13.0404 19.9085C13.4693 21.3638 15.5307 21.3638 15.9596 19.9085L16.0359 19.6498C16.1636 19.2164 16.6586 19.0114 17.0554 19.2275L17.2923 19.3565C18.6247 20.0823 20.0823 18.6247 19.3565 17.2923L19.2275 17.0554C19.0114 16.6586 19.2164 16.1636 19.6498 16.0359L19.9085 15.9596C21.3638 15.5307 21.3638 13.4693 19.9085 13.0404L19.6498 12.9641C19.2164 12.8364 19.0114 12.3414 19.2275 11.9446L19.3565 11.7077C20.0823 10.3753 18.6247 8.91774 17.2923 9.64349L17.0554 9.77251C16.6586 9.98864 16.1636 9.78359 16.0359 9.35021L15.9596 9.09149ZM13.8197 9.32121C14.0196 8.64293 14.9804 8.64293 15.1803 9.3212L15.2565 9.57992C15.5306 10.5098 16.5927 10.9498 17.4441 10.486L17.6809 10.357C18.3019 10.0188 18.9812 10.6981 18.643 11.3191L18.514 11.5559C18.0503 12.4073 18.4902 13.4694 19.4201 13.7435L19.6788 13.8197C20.3571 14.0196 20.3571 14.9804 19.6788 15.1803L19.4201 15.2565C18.4902 15.5306 18.0503 16.5927 18.514 17.4441L18.643 17.6809C18.9812 18.3019 18.3019 18.9812 17.6809 18.643L17.4441 18.514C16.5927 18.0503 15.5306 18.4902 15.2565 19.4201L15.1803 19.6788C14.9804 20.3571 14.0196 20.3571 13.8197 19.6788L13.7435 19.4201C13.4694 18.4902 12.4073 18.0503 11.5559 18.514L11.3191 18.643C10.6981 18.9812 10.0188 18.3019 10.357 17.6809L10.486 17.4441C10.9498 16.5927 10.5098 15.5306 9.57992 15.2565L9.32121 15.1803C8.64293 14.9804 8.64293 14.0196 9.3212 13.8197L9.57992 13.7435C10.5098 13.4694 10.9498 12.4073 10.486 11.5559L10.357 11.3191C10.0188 10.6981 10.6981 10.0188 11.3191 10.357L11.5559 10.486C12.4073 10.9498 13.4694 10.5098 13.7435 9.57992L13.8197 9.32121Z" fill="white"/>
</svg>
