<svg width="18" height="16" viewBox="0 0 18 16" fill="none" xmlns="http://www.w3.org/2000/svg">
<path d="M1.125 2.5559C2.1206 2.13991 3.54814 1.69176 4.93614 1.55176C6.43274 1.40081 7.7022 1.62273 8.4375 2.39743V13.3615C7.38575 12.7652 6.05323 12.6834 4.82324 12.8074C3.49529 12.9414 2.15742 13.3262 1.125 13.7198V2.5559ZM9.5625 2.39743C10.2978 1.62273 11.5673 1.40081 13.0639 1.55176C14.4519 1.69176 15.8794 2.13991 16.875 2.5559V13.7198C15.8426 13.3262 14.5047 12.9414 13.1768 12.8074C11.9468 12.6834 10.6143 12.7652 9.5625 13.3615V2.39743ZM9 1.38083C7.89197 0.428409 6.28518 0.284981 4.82324 0.43244C3.11987 0.60425 1.40016 1.18878 0.329736 1.67533C0.128927 1.76661 0 1.96683 0 2.18741V14.5624C0 14.7537 0.0971731 14.9318 0.257971 15.0354C0.418768 15.1389 0.621157 15.1536 0.795264 15.0745C1.78734 14.6236 3.38638 14.0831 4.93614 13.9268C6.52011 13.767 7.84965 14.0249 8.56076 14.9138C8.66751 15.0472 8.82912 15.1249 9 15.1249C9.17088 15.1249 9.33249 15.0472 9.43924 14.9138C10.1503 14.0249 11.4799 13.767 13.0639 13.9268C14.6136 14.0831 16.2127 14.6236 17.2047 15.0745C17.3788 15.1536 17.5812 15.1389 17.742 15.0354C17.9028 14.9318 18 14.7537 18 14.5624V2.18741C18 1.96683 17.8711 1.76661 17.6703 1.67533C16.5998 1.18878 14.8801 0.60425 13.1768 0.43244C11.7148 0.284981 10.108 0.428409 9 1.38083Z" fill="#5C5E69"/>
</svg>
