<svg width="18" height="18" viewBox="0 0 18 18" fill="none" xmlns="http://www.w3.org/2000/svg">
<path d="M3.375 4.50001C3.375 4.18935 3.62684 3.93751 3.9375 3.93751H10.6875C10.9982 3.93751 11.25 4.18935 11.25 4.50001C11.25 4.81067 10.9982 5.06251 10.6875 5.06251H3.9375C3.62684 5.06251 3.375 4.81067 3.375 4.50001Z" fill="#5C5E69"/>
<path d="M3.375 6.75001C3.375 6.43935 3.62684 6.18751 3.9375 6.18751H10.6875C10.9982 6.18751 11.25 6.43935 11.25 6.75001C11.25 7.06067 10.9982 7.31251 10.6875 7.31251H3.9375C3.62684 7.31251 3.375 7.06067 3.375 6.75001Z" fill="#5C5E69"/>
<path d="M3.375 9.00001C3.375 8.68935 3.62684 8.43751 3.9375 8.43751H10.6875C10.9982 8.43751 11.25 8.68935 11.25 9.00001C11.25 9.31067 10.9982 9.56251 10.6875 9.56251H3.9375C3.62684 9.56251 3.375 9.31067 3.375 9.00001Z" fill="#5C5E69"/>
<path d="M3.375 11.25C3.375 10.9393 3.62684 10.6875 3.9375 10.6875H10.6875C10.9982 10.6875 11.25 10.9393 11.25 11.25C11.25 11.5607 10.9982 11.8125 10.6875 11.8125H3.9375C3.62684 11.8125 3.375 11.5607 3.375 11.25Z" fill="#5C5E69"/>
<path d="M3.375 13.5C3.375 13.1893 3.62684 12.9375 3.9375 12.9375H10.6875C10.9982 12.9375 11.25 13.1893 11.25 13.5C11.25 13.8107 10.9982 14.0625 10.6875 14.0625H3.9375C3.62684 14.0625 3.375 13.8107 3.375 13.5Z" fill="#5C5E69"/>
<path d="M12.9375 3.93751C12.6268 3.93751 12.375 4.18935 12.375 4.50001C12.375 4.81067 12.6268 5.06251 12.9375 5.06251H14.0625C14.3732 5.06251 14.625 4.81067 14.625 4.50001C14.625 4.18935 14.3732 3.93751 14.0625 3.93751H12.9375Z" fill="#5C5E69"/>
<path d="M12.9375 6.18751C12.6268 6.18751 12.375 6.43935 12.375 6.75001C12.375 7.06067 12.6268 7.31251 12.9375 7.31251H14.0625C14.3732 7.31251 14.625 7.06067 14.625 6.75001C14.625 6.43935 14.3732 6.18751 14.0625 6.18751H12.9375Z" fill="#5C5E69"/>
<path d="M12.9375 8.43751C12.6268 8.43751 12.375 8.68935 12.375 9.00001C12.375 9.31067 12.6268 9.56251 12.9375 9.56251H14.0625C14.3732 9.56251 14.625 9.31067 14.625 9.00001C14.625 8.68935 14.3732 8.43751 14.0625 8.43751H12.9375Z" fill="#5C5E69"/>
<path d="M12.9375 10.6875C12.6268 10.6875 12.375 10.9393 12.375 11.25C12.375 11.5607 12.6268 11.8125 12.9375 11.8125H14.0625C14.3732 11.8125 14.625 11.5607 14.625 11.25C14.625 10.9393 14.3732 10.6875 14.0625 10.6875H12.9375Z" fill="#5C5E69"/>
<path d="M12.9375 12.9375C12.6268 12.9375 12.375 13.1893 12.375 13.5C12.375 13.8107 12.6268 14.0625 12.9375 14.0625H14.0625C14.3732 14.0625 14.625 13.8107 14.625 13.5C14.625 13.1893 14.3732 12.9375 14.0625 12.9375H12.9375Z" fill="#5C5E69"/>
<path d="M2.64775 0.164759C2.51989 0.0369059 2.33837 -0.0216928 2.1599 0.00727011C1.98142 0.036233 1.82775 0.149226 1.74688 0.310949L1.18438 1.43595C1.14533 1.51406 1.125 1.60018 1.125 1.68751V16.3125H0.5625C0.25184 16.3125 0 16.5643 0 16.875C0 17.1857 0.25184 17.4375 0.5625 17.4375H17.4375C17.7482 17.4375 18 17.1857 18 16.875C18 16.5643 17.7482 16.3125 17.4375 16.3125H16.875V1.68751C16.875 1.60018 16.8547 1.51406 16.8156 1.43595L16.2531 0.310949C16.1723 0.149226 16.0186 0.036233 15.8401 0.00727011C15.6616 -0.0216928 15.4801 0.0369059 15.3523 0.164759L14.625 0.892011L13.8977 0.164759C13.6781 -0.0549107 13.3219 -0.0549107 13.1023 0.164759L12.375 0.892011L11.6477 0.164759C11.4281 -0.0549107 11.0719 -0.0549107 10.8523 0.164759L10.125 0.892012L9.39775 0.164759C9.17808 -0.0549107 8.82192 -0.0549107 8.60225 0.164759L7.875 0.892012L7.14775 0.164759C6.92808 -0.0549107 6.57192 -0.0549107 6.35225 0.164759L5.625 0.892012L4.89775 0.164759C4.67808 -0.0549107 4.32192 -0.0549107 4.10225 0.164759L3.375 0.892012L2.64775 0.164759ZM2.4041 1.5121L2.97725 2.08525C3.19692 2.30492 3.55308 2.30492 3.77275 2.08525L4.5 1.358L5.22725 2.08525C5.44692 2.30492 5.80308 2.30492 6.02275 2.08525L6.75 1.358L7.47725 2.08525C7.69692 2.30492 8.05308 2.30492 8.27275 2.08525L9 1.358L9.72725 2.08525C9.94692 2.30492 10.3031 2.30492 10.5227 2.08525L11.25 1.358L11.9773 2.08525C12.1969 2.30492 12.5531 2.30492 12.7727 2.08525L13.5 1.358L14.2273 2.08525C14.4469 2.30492 14.8031 2.30492 15.0227 2.08525L15.5959 1.5121L15.75 1.82029V16.3125H2.25V1.8203L2.4041 1.5121Z" fill="#5C5E69"/>
</svg>
