<svg width="19" height="20" viewBox="0 0 19 20" fill="none" xmlns="http://www.w3.org/2000/svg">
<path d="M1.11612 1.22719C1.60427 0.704218 2.39573 0.704218 2.88388 1.22719L9.5 8.31518L16.1161 1.22719C16.6043 0.704218 17.3957 0.704218 17.8839 1.22719C18.372 1.75016 18.372 2.59807 17.8839 3.12104L11.2678 10.209L17.8839 17.297C18.372 17.82 18.372 18.6679 17.8839 19.1909C17.3957 19.7138 16.6043 19.7138 16.1161 19.1909L9.5 12.1029L2.88388 19.1909C2.39573 19.7138 1.60427 19.7138 1.11612 19.1909C0.627961 18.6679 0.627961 17.82 1.11612 17.297L7.73223 10.209L1.11612 3.12104C0.627961 2.59807 0.627961 1.75016 1.11612 1.22719Z" fill="black"/>
</svg>
