<svg width="18" height="19" viewBox="0 0 18 19" fill="none" xmlns="http://www.w3.org/2000/svg">
<g clip-path="url(#clip0_927_1916)">
<path d="M17.8458 1.48868L17.1 0.748999C16.9446 0.594738 16.709 0.552476 16.509 0.642439L12.5035 2.39626C12.3459 2.46739 12.2336 2.61046 12.2027 2.77909C12.1721 2.94817 12.2264 3.12112 12.3487 3.2425L15.3318 6.2012C15.4542 6.32258 15.6285 6.37638 15.799 6.34601C15.969 6.31536 16.1133 6.20409 16.185 6.04771L17.9532 2.07484C18.0439 1.87653 18.0013 1.64287 17.8458 1.48868Z" fill="#5C5E69"/>
<path d="M3.40664 12.1113L0.462664 15.0313C-0.154221 15.6431 -0.154221 16.6385 0.462664 17.2503L1.2084 17.9899C1.82528 18.6018 2.82882 18.6018 3.44567 17.9899L6.38964 15.07L3.40664 12.1113ZM3.07797 16.143C2.87185 16.3474 2.53825 16.3474 2.33216 16.143C2.12611 15.9386 2.12611 15.6077 2.33216 15.4033L3.78464 13.9627C3.99076 13.7582 4.32432 13.7582 4.53038 13.9627C4.7365 14.1672 4.7365 14.498 4.53038 14.7024L3.07797 16.143Z" fill="#5C5E69"/>
<path d="M8.62665 12.8505L5.64361 9.89179C5.23246 9.48399 4.56323 9.48399 4.15211 9.89179C3.74096 10.2996 3.74096 10.9634 4.15211 11.3711L7.13515 14.3298C7.54623 14.7376 8.2155 14.7376 8.62665 14.3298C9.0378 13.9221 9.0378 13.2583 8.62665 12.8505Z" fill="#5C5E69"/>
<path d="M13.84 6.20105L12.3484 4.72168L8.25405 8.78263C7.8422 8.37414 7.17447 8.37414 6.76255 8.78263L6.38965 9.15249L9.37269 12.1112L9.74559 11.7413C10.1574 11.3328 10.1574 10.6705 9.74559 10.262L13.84 6.20105Z" fill="#5C5E69"/>
<path d="M17.0748 13.0916C16.2187 12.2425 15.1893 12.0599 14.0082 12.2692L11.6107 9.8916L11.0382 10.4594C11.2267 11.1621 11.0434 11.9334 10.4913 12.4811L10.1191 12.8502L11.7691 14.4865C11.6027 15.4098 11.6183 16.193 12.1965 17.0424C12.8637 18.023 14.0314 18.5803 15.2548 18.4133C15.457 18.3857 15.6259 18.2466 15.6909 18.0546C15.7559 17.8627 15.7058 17.6508 15.5615 17.5076L14.8363 16.7896V15.3104H16.3292L17.0504 16.0257C17.195 16.1692 17.4092 16.2186 17.6029 16.1536C17.7966 16.0886 17.9364 15.9203 17.9636 15.7192C18.0924 14.7678 17.7786 13.7892 17.0748 13.0916Z" fill="#5C5E69"/>
<path d="M6.22422 4.5465C6.4335 3.3872 6.26405 2.36734 5.39513 1.50489C4.80391 0.918523 4.01289 0.595703 3.16781 0.595703C3.02553 0.595703 2.88477 0.604909 2.74583 0.623145C2.54294 0.649855 2.3731 0.788705 2.3075 0.981009C2.2419 1.17324 2.292 1.38581 2.4367 1.52933L3.165 2.2445V3.73391H1.66618L0.943302 3.00688C0.798915 2.86367 0.58506 2.81412 0.39149 2.87874C0.197991 2.94335 0.0580339 3.11107 0.0302254 3.31174C-0.130438 4.47209 0.376479 5.65092 1.41074 6.34342C2.27038 6.91786 3.0647 6.93209 3.98867 6.76688L5.64527 8.41264L6.01754 8.04341C6.5697 7.49575 7.34739 7.31405 8.05579 7.50095L8.62806 6.93334L6.22422 4.5465Z" fill="#5C5E69"/>
</g>
<defs>
<clipPath id="clip0_927_1916">
<rect width="18" height="17.8531" fill="white" transform="translate(0 0.595703)"/>
</clipPath>
</defs>
</svg>
