<svg width="30" height="29" viewBox="0 0 30 29" fill="none" xmlns="http://www.w3.org/2000/svg">
<rect x="0.450684" width="29.4085" height="29" rx="5" fill="#FF4B4A"/>
<path d="M13.851 8.49972H16.4586C16.6987 8.49972 16.8933 8.6916 16.8933 8.92829V9.78544H13.4164V8.92829C13.4164 8.6916 13.611 8.49972 13.851 8.49972ZM17.7625 9.78544V8.92829C17.7625 8.21821 17.1787 7.64258 16.4586 7.64258H13.851C13.1309 7.64258 12.5472 8.21821 12.5472 8.92829V9.78544H10.3791C10.3761 9.78541 10.3731 9.78541 10.3702 9.78544H9.50492C9.26489 9.78544 9.07031 9.97731 9.07031 10.214C9.07031 10.4507 9.26489 10.6426 9.50492 10.6426H9.97291L10.7141 19.7793C10.7864 20.6702 11.5407 21.3569 12.447 21.3569H17.8626C18.769 21.3569 19.5232 20.6702 19.5955 19.7793L20.3367 10.6426H20.8047C21.0447 10.6426 21.2393 10.4507 21.2393 10.214C21.2393 9.97731 21.0447 9.78544 20.8047 9.78544H19.9395C19.9365 9.78541 19.9335 9.78541 19.9306 9.78544H17.7625ZM19.4647 10.6426L18.7291 19.7109C18.6929 20.1564 18.3158 20.4997 17.8626 20.4997H12.447C11.9939 20.4997 11.6167 20.1564 11.5806 19.7109L10.8449 10.6426H19.4647ZM12.9563 11.5005C13.1959 11.4866 13.4015 11.6668 13.4156 11.9031L13.8502 19.1888C13.8643 19.4251 13.6815 19.6279 13.4419 19.6418C13.2023 19.6557 12.9966 19.4755 12.9825 19.2392L12.5479 11.9535C12.5338 11.7172 12.7166 11.5144 12.9563 11.5005ZM17.3534 11.5005C17.593 11.5144 17.7758 11.7172 17.7617 11.9535L17.3271 19.2392C17.313 19.4755 17.1073 19.6557 16.8677 19.6418C16.6281 19.6279 16.4453 19.4251 16.4594 19.1888L16.894 11.9031C16.9081 11.6668 17.1138 11.4866 17.3534 11.5005ZM15.1548 11.4997C15.3948 11.4997 15.5894 11.6916 15.5894 11.9283V19.214C15.5894 19.4507 15.3948 19.6426 15.1548 19.6426C14.9148 19.6426 14.7202 19.4507 14.7202 19.214V11.9283C14.7202 11.6916 14.9148 11.4997 15.1548 11.4997Z" fill="white"/>
</svg>
