<svg width="50" height="50" viewBox="0 0 50 50" fill="none" xmlns="http://www.w3.org/2000/svg">
<rect width="50" height="50" rx="8" fill="#FF4B4A" fill-opacity="0.2"/>
<path d="M23.1875 16.125H26.5625C26.8732 16.125 27.125 16.3768 27.125 16.6875V17.8125H22.625V16.6875C22.625 16.3768 22.8768 16.125 23.1875 16.125ZM28.25 17.8125V16.6875C28.25 15.7555 27.4945 15 26.5625 15H23.1875C22.2555 15 21.5 15.7555 21.5 16.6875V17.8125H18.6939C18.69 17.8125 18.6862 17.8125 18.6824 17.8125H17.5625C17.2518 17.8125 17 18.0643 17 18.375C17 18.6857 17.2518 18.9375 17.5625 18.9375H18.1682L19.1276 30.9294C19.2211 32.0988 20.1973 33 21.3704 33H28.3796C29.5527 33 30.5289 32.0988 30.6224 30.9294L31.5818 18.9375H32.1875C32.4982 18.9375 32.75 18.6857 32.75 18.375C32.75 18.0643 32.4982 17.8125 32.1875 17.8125H31.0676C31.0638 17.8125 31.06 17.8125 31.0561 17.8125H28.25ZM30.4532 18.9375L29.501 30.8397C29.4543 31.4244 28.9661 31.875 28.3796 31.875H21.3704C20.7839 31.875 20.2957 31.4244 20.249 30.8397L19.2968 18.9375H30.4532ZM22.0295 20.0635C22.3396 20.0452 22.6058 20.2818 22.624 20.592L23.1865 30.1545C23.2048 30.4646 22.9682 30.7308 22.658 30.749C22.3479 30.7673 22.0817 30.5307 22.0635 30.2205L21.501 20.658C21.4827 20.3479 21.7193 20.0817 22.0295 20.0635ZM27.7205 20.0635C28.0307 20.0817 28.2673 20.3479 28.249 20.658L27.6865 30.2205C27.6683 30.5307 27.4021 30.7673 27.092 30.749C26.7818 30.7308 26.5452 30.4646 26.5635 30.1545L27.126 20.592C27.1442 20.2818 27.4104 20.0452 27.7205 20.0635ZM24.875 20.0625C25.1857 20.0625 25.4375 20.3143 25.4375 20.625V30.1875C25.4375 30.4982 25.1857 30.75 24.875 30.75C24.5643 30.75 24.3125 30.4982 24.3125 30.1875V20.625C24.3125 20.3143 24.5643 20.0625 24.875 20.0625Z" fill="#FF4B4A"/>
</svg>
