<svg width="12" height="16" viewBox="0 0 12 16" fill="none" xmlns="http://www.w3.org/2000/svg">
<path d="M12 14V4.5L7.5 0H2C0.895431 0 0 0.89543 0 2V14C0 15.1046 0.895431 16 2 16H10C11.1046 16 12 15.1046 12 14ZM7.5 3C7.5 3.82843 8.17157 4.5 9 4.5H11V14C11 14.5523 10.5523 15 10 15H2C1.44772 15 1 14.5523 1 14V2C1 1.44772 1.44772 1 2 1H7.5V3Z" fill="white"/>
<path d="M2.60308 14.0867C2.39492 14.0107 2.25502 13.8484 2.16469 13.6678C1.97023 13.2789 2.03479 12.8911 2.24538 12.5646C2.4432 12.2579 2.77107 11.9972 3.14157 11.7784C3.55866 11.532 4.0723 11.3142 4.62412 11.1333C4.83122 10.7616 5.03391 10.3665 5.22354 9.96491C5.39178 9.60862 5.54761 9.25179 5.68581 8.90631C5.49421 8.45887 5.34401 8.01665 5.25638 7.61141C5.16979 7.21094 5.13709 6.81475 5.20953 6.47496C5.28496 6.12116 5.48355 5.80276 5.86079 5.65187C6.05235 5.57525 6.25998 5.53151 6.46215 5.57474C6.68338 5.62205 6.84316 5.76145 6.93893 5.93994C7.02715 6.10438 7.05908 6.29557 7.06587 6.47828C7.07284 6.66551 7.05431 6.87351 7.01863 7.09178C6.93529 7.60167 6.74812 8.22639 6.49839 8.88638C6.64647 9.20416 6.81663 9.5258 7.00129 9.83738C7.15468 10.0962 7.31534 10.3435 7.47821 10.5722C7.97315 10.5409 8.43294 10.5537 8.81309 10.6221C9.17696 10.6875 9.54707 10.8173 9.77299 11.0868C9.8939 11.2311 9.96588 11.4071 9.9731 11.6054C9.98008 11.7972 9.92593 11.9868 9.83546 12.1677C9.751 12.3366 9.63563 12.4829 9.48087 12.5842C9.32289 12.6875 9.14711 12.7286 8.97133 12.7216C8.64002 12.7083 8.31729 12.5258 8.03774 12.305C7.73718 12.0677 7.42668 11.7377 7.12697 11.3553C6.8067 11.3901 6.46939 11.4429 6.12731 11.5124C5.78883 11.5812 5.45236 11.665 5.13014 11.7609C4.79218 12.3441 4.44175 12.8697 4.10906 13.2707C3.81838 13.6211 3.50132 13.9266 3.18301 14.0577C3.01465 14.1271 2.8099 14.1622 2.60308 14.0867ZM3.98158 12.1859C3.81603 12.2623 3.66217 12.3419 3.52298 12.4241C3.19504 12.6178 2.98181 12.8065 2.87564 12.9711C2.78226 13.1159 2.77995 13.2212 2.83551 13.3323C2.84627 13.3539 2.85527 13.3678 2.86178 13.3764C2.87007 13.3743 2.88173 13.3707 2.89731 13.3643C3.03409 13.3079 3.25219 13.129 3.53183 12.7919C3.67695 12.6169 3.82805 12.4126 3.98158 12.1859ZM5.62199 10.8551C5.74064 10.8274 5.85945 10.8015 5.97793 10.7774C6.19565 10.7332 6.41477 10.6946 6.63205 10.6627C6.53723 10.5179 6.44498 10.3697 6.35609 10.2198C6.27548 10.0837 6.19695 9.94507 6.12119 9.80476C6.05032 9.96531 5.97698 10.1258 5.90172 10.2852C5.81154 10.4761 5.71802 10.6667 5.62199 10.8551ZM8.0682 11.3068C8.21771 11.4685 8.36385 11.6069 8.50257 11.7164C8.74309 11.9064 8.9103 11.9685 9.00142 11.9722C9.03685 11.9736 9.05541 11.9663 9.07021 11.9566C9.08823 11.9448 9.12409 11.9134 9.16464 11.8323C9.21669 11.7282 9.22475 11.6644 9.22359 11.6327C9.22268 11.6076 9.21617 11.59 9.19823 11.5686C9.14643 11.5069 8.99735 11.4172 8.68028 11.3602C8.50231 11.3282 8.29585 11.3106 8.0682 11.3068ZM6.07842 7.79874C6.17027 7.49408 6.23868 7.21415 6.27845 6.9708C6.30918 6.78282 6.32091 6.62754 6.31639 6.50617C6.31244 6.3999 6.29664 6.33865 6.28437 6.30827C6.26023 6.3102 6.21402 6.31835 6.13933 6.34823C6.05234 6.38302 5.98088 6.4539 5.94305 6.63134C5.90224 6.82278 5.91309 7.0998 5.98944 7.45289C6.01349 7.56409 6.04332 7.67969 6.07842 7.79874Z" fill="white"/>
</svg>
