<svg width="16" height="16" viewBox="0 0 16 16" fill="none" xmlns="http://www.w3.org/2000/svg">
<path d="M11.1955 9.06673C11.3232 8.72564 11.3879 8.36424 11.3866 8.00006C11.3866 7.19145 11.0654 6.41595 10.4936 5.84417C9.92187 5.27239 9.14637 4.95117 8.33776 4.95117C7.97806 4.95159 7.62134 5.01631 7.28442 5.14228L7.99998 5.88006C8.10875 5.86266 8.21871 5.85374 8.32887 5.85339C8.90062 5.8522 9.44961 6.07728 9.85598 6.47948C10.2623 6.88168 10.4931 7.42833 10.4978 8.00006C10.4974 8.11022 10.4885 8.22017 10.4711 8.32895L11.1955 9.06673Z" fill="#C7D2D6"/>
<path d="M15.24 7.79113C13.7422 5.02224 11.1156 3.34668 8.20889 3.34668C7.41749 3.34854 6.63141 3.47605 5.88 3.72446L6.59556 4.44446C7.12261 4.30825 7.66454 4.23808 8.20889 4.23557C10.7111 4.23557 12.9867 5.63112 14.3422 7.98224C13.845 8.85451 13.1858 9.62383 12.4 10.2489L13.0311 10.88C13.9405 10.1464 14.6957 9.2401 15.2533 8.21335L15.3689 8.00001L15.24 7.79113Z" fill="#C7D2D6"/>
<path d="M2.16447 2.56847L4.14669 4.55069C2.89376 5.35741 1.86976 6.47326 1.17336 7.79069L1.0578 7.99958L1.17336 8.21292C2.67113 10.9818 5.2978 12.6574 8.20446 12.6574C9.33898 12.6571 10.4588 12.4004 11.48 11.9062L13.7022 14.1285L14.48 13.4618L2.92447 1.90625L2.16447 2.56847ZM6.4978 6.9018L9.45335 9.85736C9.11941 10.0641 8.73498 10.1748 8.34224 10.1774C8.05688 10.1774 7.77433 10.1209 7.51085 10.0113C7.24738 9.90173 7.00818 9.7411 6.80702 9.5387C6.60585 9.3363 6.4467 9.09612 6.33872 8.83197C6.23073 8.56783 6.17604 8.28494 6.1778 7.99958C6.18281 7.61139 6.29343 7.23189 6.4978 6.9018ZM5.85335 6.25736C5.43755 6.84376 5.24265 7.55838 5.30318 8.27469C5.36371 8.991 5.67576 9.66278 6.18407 10.1711C6.69238 10.6794 7.36416 10.9914 8.08047 11.052C8.79678 11.1125 9.5114 10.9176 10.0978 10.5018L10.8089 11.2129C9.9857 11.5648 9.09973 11.7462 8.20446 11.7462C5.70224 11.7462 3.42669 10.3507 2.07113 7.99958C2.72167 6.84768 3.65857 5.88323 4.79113 5.19958L5.85335 6.25736Z" fill="#C7D2D6"/>
</svg>
