<svg width="34" height="34" viewBox="0 0 34 34" fill="none" xmlns="http://www.w3.org/2000/svg">
<g filter="url(#filter0_d_1618_28812)">
<rect x="3" y="2" width="26" height="26" rx="4" fill="#0FCB02"/>
</g>
<g clip-path="url(#clip0_1618_28812)">
<path d="M17.6121 13.5251L18.1756 14.0886L12.6264 19.6379H12.0629V19.0744L17.6121 13.5251ZM19.8171 9.83789C19.664 9.83789 19.5048 9.89914 19.3884 10.0155L18.2675 11.1364L20.5644 13.4333L21.6853 12.3124C21.9241 12.0735 21.9241 11.6876 21.6853 11.4488L20.252 10.0155C20.1295 9.89302 19.9764 9.83789 19.8171 9.83789ZM17.6121 11.7918L10.8379 18.566V20.8629H13.1348L19.909 14.0886L17.6121 11.7918Z" fill="white"/>
</g>
<defs>
<filter id="filter0_d_1618_28812" x="0" y="0" width="34" height="34" filterUnits="userSpaceOnUse" color-interpolation-filters="sRGB">
<feFlood flood-opacity="0" result="BackgroundImageFix"/>
<feColorMatrix in="SourceAlpha" type="matrix" values="0 0 0 0 0 0 0 0 0 0 0 0 0 0 0 0 0 0 127 0" result="hardAlpha"/>
<feOffset dx="1" dy="2"/>
<feGaussianBlur stdDeviation="2"/>
<feComposite in2="hardAlpha" operator="out"/>
<feColorMatrix type="matrix" values="0 0 0 0 0 0 0 0 0 0 0 0 0 0 0 0 0 0 0.15 0"/>
<feBlend mode="normal" in2="BackgroundImageFix" result="effect1_dropShadow_1618_28812"/>
<feBlend mode="normal" in="SourceGraphic" in2="effect1_dropShadow_1618_28812" result="shape"/>
</filter>
<clipPath id="clip0_1618_28812">
<rect width="14.7" height="14.7" fill="white" transform="translate(9 8)"/>
</clipPath>
</defs>
</svg>
