<svg width="18" height="21" viewBox="0 0 18 21" fill="none" xmlns="http://www.w3.org/2000/svg">
<path d="M13.5 20.5714C15.9853 20.5714 18 18.5567 18 16.0714C18 13.5861 15.9853 11.5714 13.5 11.5714C11.0147 11.5714 9 13.5861 9 16.0714C9 18.5567 11.0147 20.5714 13.5 20.5714ZM15.6584 14.795L13.9416 17.6563C13.6189 18.1942 12.8765 18.2856 12.4329 17.842L11.4383 16.8474C11.1872 16.5964 11.1872 16.1893 11.4383 15.9383C11.6893 15.6872 12.0964 15.6872 12.3474 15.9383L13.0509 16.6418L14.5559 14.1335C14.7386 13.8291 15.1334 13.7304 15.4379 13.913C15.7423 14.0957 15.8411 14.4906 15.6584 14.795Z" fill="#5C5E69"/>
<path d="M0 1.28571C0 0.575634 0.575634 0 1.28571 0H14.1429C14.8529 0 15.4286 0.575634 15.4286 1.28571V9.64286C15.4286 9.9979 15.1408 10.2857 14.7857 10.2857C14.4307 10.2857 14.1429 9.9979 14.1429 9.64286V1.28571H1.28571V19.2857H5.14286V16.0714C5.14286 15.7164 5.43067 15.4286 5.78571 15.4286H7.71429V20.5714H1.28571C0.575633 20.5714 0 19.9958 0 19.2857V1.28571Z" fill="#5C5E69"/>
<path d="M3.21429 2.57143C2.85925 2.57143 2.57143 2.85925 2.57143 3.21429V4.5C2.57143 4.85504 2.85925 5.14286 3.21429 5.14286H4.5C4.85504 5.14286 5.14286 4.85504 5.14286 4.5V3.21429C5.14286 2.85925 4.85504 2.57143 4.5 2.57143H3.21429Z" fill="#5C5E69"/>
<path d="M7.07143 2.57143C6.71639 2.57143 6.42857 2.85925 6.42857 3.21429V4.5C6.42857 4.85504 6.71639 5.14286 7.07143 5.14286H8.35714C8.71218 5.14286 9 4.85504 9 4.5V3.21429C9 2.85925 8.71218 2.57143 8.35714 2.57143H7.07143Z" fill="#5C5E69"/>
<path d="M10.9286 2.57143C10.5735 2.57143 10.2857 2.85925 10.2857 3.21429V4.5C10.2857 4.85504 10.5735 5.14286 10.9286 5.14286H12.2143C12.5693 5.14286 12.8571 4.85504 12.8571 4.5V3.21429C12.8571 2.85925 12.5693 2.57143 12.2143 2.57143H10.9286Z" fill="#5C5E69"/>
<path d="M3.21429 6.42857C2.85925 6.42857 2.57143 6.71639 2.57143 7.07143V8.35714C2.57143 8.71218 2.85925 9 3.21429 9H4.5C4.85504 9 5.14286 8.71218 5.14286 8.35714V7.07143C5.14286 6.71639 4.85504 6.42857 4.5 6.42857H3.21429Z" fill="#5C5E69"/>
<path d="M7.07143 6.42857C6.71639 6.42857 6.42857 6.71639 6.42857 7.07143V8.35714C6.42857 8.71218 6.71639 9 7.07143 9H8.35714C8.71218 9 9 8.71218 9 8.35714V7.07143C9 6.71639 8.71218 6.42857 8.35714 6.42857H7.07143Z" fill="#5C5E69"/>
<path d="M10.9286 6.42857C10.5735 6.42857 10.2857 6.71639 10.2857 7.07143V8.35714C10.2857 8.71218 10.5735 9 10.9286 9H12.2143C12.5693 9 12.8571 8.71218 12.8571 8.35714V7.07143C12.8571 6.71639 12.5693 6.42857 12.2143 6.42857H10.9286Z" fill="#5C5E69"/>
<path d="M3.21429 10.2857C2.85925 10.2857 2.57143 10.5735 2.57143 10.9286V12.2143C2.57143 12.5693 2.85925 12.8571 3.21429 12.8571H4.5C4.85504 12.8571 5.14286 12.5693 5.14286 12.2143V10.9286C5.14286 10.5735 4.85504 10.2857 4.5 10.2857H3.21429Z" fill="#5C5E69"/>
<path d="M7.07143 10.2857C6.71639 10.2857 6.42857 10.5735 6.42857 10.9286V12.2143C6.42857 12.5693 6.71639 12.8571 7.07143 12.8571H8.35714C8.71218 12.8571 9 12.5693 9 12.2143V10.9286C9 10.5735 8.71218 10.2857 8.35714 10.2857H7.07143Z" fill="#5C5E69"/>
</svg>
