<svg width="15" height="15" viewBox="0 0 15 15" fill="none" xmlns="http://www.w3.org/2000/svg">
<path d="M9.64286 3.21429C9.64286 4.98949 8.20377 6.42857 6.42857 6.42857C4.65337 6.42857 3.21429 4.98949 3.21429 3.21429C3.21429 1.43908 4.65337 0 6.42857 0C8.20377 0 9.64286 1.43908 9.64286 3.21429ZM6.42857 5.35714C7.61204 5.35714 8.57143 4.39775 8.57143 3.21429C8.57143 2.03082 7.61204 1.07143 6.42857 1.07143C5.2451 1.07143 4.28571 2.03082 4.28571 3.21429C4.28571 4.39775 5.2451 5.35714 6.42857 5.35714Z" fill="#5C5E69"/>
<path d="M6.70292 12.8571C6.58194 12.5148 6.49851 12.1548 6.45759 11.782H1.07143C1.07295 11.5176 1.23617 10.7255 1.96296 9.99868C2.66181 9.29984 3.97594 8.57143 6.42856 8.57143C6.70767 8.57143 6.97203 8.58086 7.22242 8.59861C7.46366 8.23289 7.75337 7.90197 8.08241 7.615C7.58258 7.5409 7.03284 7.5 6.42857 7.5C1.07143 7.5 0 10.7143 0 11.7857C0 12.8571 1.07143 12.8571 1.07143 12.8571H6.70292Z" fill="#5C5E69"/>
<path d="M10.5916 7.99237C10.7851 7.33588 11.7149 7.33588 11.9084 7.99237L11.9554 8.15158C12.079 8.57105 12.5581 8.7695 12.9421 8.56032L13.0879 8.48092C13.6889 8.15354 14.3465 8.81106 14.0191 9.41209L13.9397 9.55785C13.7305 9.94188 13.929 10.421 14.3484 10.5446L14.5076 10.5916C15.1641 10.7851 15.1641 11.7149 14.5076 11.9084L14.3484 11.9554C13.929 12.079 13.7305 12.5581 13.9397 12.9422L14.0191 13.0879C14.3465 13.6889 13.6889 14.3465 13.0879 14.0191L12.9422 13.9397C12.5581 13.7305 12.079 13.929 11.9554 14.3484L11.9084 14.5076C11.7149 15.1641 10.7851 15.1641 10.5916 14.5076L10.5446 14.3484C10.421 13.929 9.94188 13.7305 9.55785 13.9397L9.41209 14.0191C8.81106 14.3465 8.15354 13.6889 8.48092 13.0879L8.56032 12.9422C8.7695 12.5581 8.57105 12.079 8.15158 11.9554L7.99237 11.9084C7.33588 11.7149 7.33588 10.7851 7.99237 10.5916L8.15158 10.5446C8.57105 10.421 8.7695 9.94188 8.56032 9.55785L8.48092 9.41209C8.15354 8.81106 8.81106 8.15354 9.41209 8.48092L9.55785 8.56032C9.94188 8.7695 10.421 8.57105 10.5446 8.15158L10.5916 7.99237ZM12.8571 11.25C12.8571 10.3624 12.1376 9.64286 11.25 9.64286C10.3624 9.64286 9.64286 10.3624 9.64286 11.25C9.64286 12.1376 10.3624 12.8571 11.25 12.8571C12.1376 12.8571 12.8571 12.1376 12.8571 11.25Z" fill="#5C5E69"/>
</svg>
