<svg width="24" height="28" viewBox="0 0 24 28" fill="none" xmlns="http://www.w3.org/2000/svg">
<path d="M12 2C9.62663 2 7.30655 2.70379 5.33316 4.02236C3.35977 5.34094 1.8217 7.21509 0.913451 9.4078C0.00519941 11.6005 -0.232441 14.0133 0.230582 16.3411C0.693605 18.6689 1.83649 20.8071 3.51472 22.4853C5.19295 24.1635 7.33115 25.3064 9.65892 25.7694C11.9867 26.2324 14.3995 25.9948 16.5922 25.0866C18.7849 24.1783 20.6591 22.6402 21.9776 20.6668C23.2962 18.6935 24 16.3734 24 14C23.9966 10.8184 22.7313 7.76814 20.4816 5.51843C18.2319 3.26872 15.1816 2.00336 12 2ZM16.3454 17.0392C16.4312 17.125 16.4992 17.2268 16.5456 17.3389C16.592 17.4509 16.6159 17.571 16.6159 17.6923C16.6159 17.8136 16.592 17.9337 16.5456 18.0458C16.4992 18.1578 16.4312 18.2596 16.3454 18.3454C16.2596 18.4311 16.1578 18.4992 16.0458 18.5456C15.9337 18.592 15.8136 18.6159 15.6923 18.6159C15.571 18.6159 15.4509 18.592 15.3389 18.5456C15.2268 18.4992 15.125 18.4311 15.0392 18.3454L12 15.305L8.96077 18.3454C8.87501 18.4311 8.77319 18.4992 8.66114 18.5456C8.54908 18.592 8.42898 18.6159 8.3077 18.6159C8.18641 18.6159 8.06631 18.592 7.95425 18.5456C7.8422 18.4992 7.74038 18.4311 7.65462 18.3454C7.56886 18.2596 7.50082 18.1578 7.45441 18.0458C7.408 17.9337 7.38411 17.8136 7.38411 17.6923C7.38411 17.571 7.408 17.4509 7.45441 17.3389C7.50082 17.2268 7.56886 17.125 7.65462 17.0392L10.695 14L7.65462 10.9608C7.48141 10.7876 7.38411 10.5526 7.38411 10.3077C7.38411 10.0627 7.48141 9.82782 7.65462 9.65462C7.82783 9.48141 8.06275 9.3841 8.3077 9.3841C8.55265 9.3841 8.78757 9.48141 8.96077 9.65462L12 12.695L15.0392 9.65462C15.125 9.56885 15.2268 9.50082 15.3389 9.45441C15.4509 9.40799 15.571 9.3841 15.6923 9.3841C15.8136 9.3841 15.9337 9.40799 16.0458 9.45441C16.1578 9.50082 16.2596 9.56885 16.3454 9.65462C16.4312 9.74038 16.4992 9.8422 16.5456 9.95425C16.592 10.0663 16.6159 10.1864 16.6159 10.3077C16.6159 10.429 16.592 10.5491 16.5456 10.6611C16.4992 10.7732 16.4312 10.875 16.3454 10.9608L13.305 14L16.3454 17.0392Z" fill="#FF4B4A"/>
<circle cx="12" cy="14" r="8" fill="#FF4B4A"/>
<path d="M17 19.25V10.9375L13.25 7H8.66667C7.74619 7 7 7.7835 7 8.75V19.25C7 20.2165 7.74619 21 8.66667 21H15.3333C16.2538 21 17 20.2165 17 19.25ZM13.25 9.625C13.25 10.3499 13.8096 10.9375 14.5 10.9375H16.1667V19.25C16.1667 19.7332 15.7936 20.125 15.3333 20.125H8.66667C8.20643 20.125 7.83333 19.7332 7.83333 19.25V8.75C7.83333 8.26675 8.20643 7.875 8.66667 7.875H13.25V9.625Z" fill="white"/>
<path d="M9.16923 19.3258C8.99577 19.2594 8.87919 19.1174 8.80391 18.9593C8.64186 18.619 8.69566 18.2797 8.87115 17.994C9.036 17.7257 9.30922 17.4975 9.61797 17.3061C9.96555 17.0905 10.3936 16.8999 10.8534 16.7417C11.026 16.4164 11.1949 16.0707 11.3529 15.7193C11.4932 15.4075 11.623 15.0953 11.7382 14.793C11.5785 14.4015 11.4533 14.0146 11.3803 13.66C11.3082 13.3096 11.2809 12.9629 11.3413 12.6656C11.4041 12.356 11.5696 12.0774 11.884 11.9454C12.0436 11.8783 12.2166 11.8401 12.3851 11.8779C12.5695 11.9193 12.7026 12.0413 12.7824 12.1975C12.856 12.3413 12.8826 12.5086 12.8882 12.6685C12.894 12.8323 12.8786 13.0143 12.8489 13.2053C12.7794 13.6515 12.6234 14.1981 12.4153 14.7756C12.5387 15.0536 12.6805 15.3351 12.8344 15.6077C12.9622 15.8342 13.0961 16.0505 13.2318 16.2507C13.6443 16.2233 14.0274 16.2345 14.3442 16.2943C14.6475 16.3516 14.9559 16.4651 15.1442 16.701C15.2449 16.8272 15.3049 16.9812 15.3109 17.1548C15.3167 17.3226 15.2716 17.4884 15.1962 17.6467C15.1258 17.7945 15.0297 17.9225 14.9007 18.0111C14.7691 18.1016 14.6226 18.1376 14.4761 18.1314C14.2 18.1197 13.9311 17.9601 13.6981 17.7669C13.4476 17.5592 13.1889 17.2704 12.9391 16.9359C12.6723 16.9663 12.3912 17.0125 12.1061 17.0733C11.824 17.1335 11.5436 17.2069 11.2751 17.2908C10.9935 17.8011 10.7015 18.261 10.4242 18.6119C10.182 18.9185 9.91776 19.1857 9.65251 19.3005C9.51221 19.3612 9.34158 19.3919 9.16923 19.3258ZM10.318 17.6627C10.18 17.7295 10.0518 17.7992 9.93582 17.8711C9.66253 18.0406 9.48484 18.2057 9.39637 18.3497C9.31855 18.4764 9.31662 18.5686 9.36292 18.6658C9.37189 18.6846 9.37939 18.6968 9.38482 18.7043C9.39172 18.7025 9.40144 18.6993 9.41442 18.6937C9.52841 18.6444 9.71016 18.4878 9.94319 18.1929C10.0641 18.0398 10.19 17.8611 10.318 17.6627ZM11.685 16.4982C11.7839 16.474 11.8829 16.4513 11.9816 16.4302C12.163 16.3915 12.3456 16.3578 12.5267 16.3299C12.4477 16.2032 12.3708 16.0735 12.2967 15.9423C12.2296 15.8233 12.1641 15.7019 12.101 15.5792C12.0419 15.7196 11.9808 15.8601 11.9181 15.9995C11.843 16.1666 11.765 16.3334 11.685 16.4982ZM13.7235 16.8934C13.8481 17.0349 13.9699 17.156 14.0855 17.2519C14.2859 17.4181 14.4253 17.4725 14.5012 17.4757C14.5307 17.4769 14.5462 17.4705 14.5585 17.462C14.5735 17.4517 14.6034 17.4242 14.6372 17.3533C14.6806 17.2622 14.6873 17.2064 14.6863 17.1786C14.6856 17.1566 14.6801 17.1413 14.6652 17.1226C14.622 17.0685 14.4978 16.9901 14.2336 16.9402C14.0853 16.9122 13.9132 16.8968 13.7235 16.8934ZM12.0653 13.8239C12.1419 13.5573 12.1989 13.3124 12.232 13.0994C12.2576 12.935 12.2674 12.7991 12.2637 12.6929C12.2604 12.5999 12.2472 12.5463 12.237 12.5197C12.2169 12.5214 12.1783 12.5286 12.1161 12.5547C12.0436 12.5851 11.9841 12.6472 11.9525 12.8024C11.9185 12.9699 11.9276 13.2123 11.9912 13.5213C12.0112 13.6186 12.0361 13.7197 12.0653 13.8239Z" fill="white"/>
</svg>
