<svg width="19" height="19" viewBox="0 0 19 19" fill="none" xmlns="http://www.w3.org/2000/svg">
<path d="M10.8221 11.8828C13.9355 11.8828 16.4684 9.35041 16.4684 6.23778C16.4684 3.12516 13.9355 0.592773 10.8221 0.592773C7.70872 0.592773 5.17578 3.12512 5.17578 6.23775C5.17578 9.35038 7.70872 11.8828 10.8221 11.8828ZM9.00776 7.99928C9.17201 7.75027 9.50872 7.68037 9.75978 7.84335C10.1256 8.08068 10.2636 8.10256 10.7464 8.09922C11.2176 8.09613 11.491 7.7478 11.5456 7.42543C11.5722 7.26863 11.5823 6.88574 11.1039 6.71799C10.5427 6.52121 9.96839 6.2963 9.56884 5.98547C9.16929 5.67464 8.98632 5.13804 9.09139 4.58516C9.20529 3.98581 9.62682 3.50869 10.1915 3.34C10.1966 3.3385 10.2016 3.33727 10.2067 3.33577V3.13151C10.2067 2.83394 10.45 2.59269 10.75 2.59269C11.05 2.59269 11.2933 2.83394 11.2933 3.13151V3.30182C11.6622 3.38918 11.9199 3.55661 12.0246 3.63417C12.2649 3.81238 12.314 4.15001 12.1344 4.38838C11.9548 4.62676 11.6144 4.67554 11.374 4.4973C11.2627 4.41475 10.955 4.2373 10.5049 4.37182C10.2419 4.45042 10.1737 4.70777 10.1591 4.78475C10.1304 4.93601 10.1626 5.0778 10.2394 5.1375C10.5163 5.35296 11.0149 5.54374 11.466 5.7019C12.2979 5.99355 12.7605 6.75797 12.6171 7.60407C12.5467 8.01922 12.3361 8.40438 12.0241 8.6887C11.8116 8.88239 11.5642 9.02047 11.2933 9.09932V9.34398C11.2933 9.64156 11.05 9.88281 10.75 9.88281C10.45 9.88281 10.2067 9.64156 10.2067 9.34398V9.15306C9.85546 9.11081 9.56058 9.00186 9.16494 8.74516C8.91392 8.58226 8.84351 8.24829 9.00776 7.99928Z" fill="#5C5E69"/>
<path d="M2.12572 13.6934H0.88701C0.586986 13.6934 0.34375 13.9346 0.34375 14.2322V18.4562C0.34375 18.7538 0.586986 18.9951 0.88701 18.9951H2.12575V13.6934H2.12572Z" fill="#5C5E69"/>
<path d="M18.1842 13.6561C17.166 12.6462 15.5091 12.6462 14.4909 13.6561L12.8636 15.2702L12.1965 15.9318C11.927 16.1992 11.5613 16.3494 11.1801 16.3494H7.93669C7.64376 16.3494 7.39169 16.1261 7.37789 15.8359C7.36319 15.526 7.61211 15.2702 7.9213 15.2702H11.218C11.8809 15.2702 12.4558 14.8022 12.5697 14.1545C12.5959 14.0058 12.6096 13.8529 12.6096 13.6968C12.6096 13.3987 12.3661 13.1568 12.0655 13.1568H10.2591C9.66879 13.1568 9.10188 12.8912 8.50165 12.61C7.87208 12.315 7.22111 12.01 6.45993 11.9598C5.79418 11.9158 5.12691 11.9881 4.47655 12.1743C3.7802 12.3738 3.27964 12.9874 3.21894 13.6958C3.21662 13.6957 3.21427 13.6956 3.21191 13.6955V18.9936L12.5715 18.9962C13.215 18.9962 13.82 18.7476 14.2751 18.2962L18.1841 14.4192C18.3966 14.2085 18.3966 13.8669 18.1842 13.6561Z" fill="#5C5E69"/>
</svg>
