<svg width="16" height="17" viewBox="0 0 16 17" fill="none" xmlns="http://www.w3.org/2000/svg">
<path d="M12.9109 1.86551H12.3141V1.27353C12.3141 0.935304 12.0344 0.661133 11.6894 0.661133C11.3444 0.661133 11.0647 0.935304 11.0647 1.27353V1.86551H4.9353V1.27353C4.9353 0.935304 4.65561 0.661133 4.31058 0.661133C3.96555 0.661133 3.68586 0.935304 3.68586 1.27353V1.86551H3.08909C1.38576 1.86551 0 3.22393 0 4.89364V13.3104C0 14.9801 1.38576 16.3386 3.08909 16.3386H12.9109C14.6142 16.3386 16 14.9801 16 13.3104V4.89364C16 3.22393 14.6142 1.86551 12.9109 1.86551ZM3.08909 3.09031H3.68586V4.28449C3.68586 4.62272 3.96555 4.89689 4.31058 4.89689C4.65561 4.89689 4.9353 4.62272 4.9353 4.28449V3.09031H11.0647V4.28449C11.0647 4.62272 11.3444 4.89689 11.6894 4.89689C12.0345 4.89689 12.3141 4.62272 12.3141 4.28449V3.09031H12.9109C13.9253 3.09031 14.7506 3.89929 14.7506 4.89364V5.47867H1.24944V4.89364C1.24944 3.89929 2.0747 3.09031 3.08909 3.09031ZM12.9109 15.1138H3.08909C2.0747 15.1138 1.24944 14.3048 1.24944 13.3104V6.70347H14.7506V13.3104C14.7506 14.3048 13.9253 15.1138 12.9109 15.1138ZM5.54962 9.11225C5.54962 9.45048 5.26993 9.72465 4.9249 9.72465H3.69629C3.35126 9.72465 3.07157 9.45048 3.07157 9.11225C3.07157 8.77402 3.35126 8.49985 3.69629 8.49985H4.9249C5.2699 8.49985 5.54962 8.77402 5.54962 9.11225ZM12.9285 9.11225C12.9285 9.45048 12.6488 9.72465 12.3037 9.72465H11.0751C10.7301 9.72465 10.4504 9.45048 10.4504 9.11225C10.4504 8.77402 10.7301 8.49985 11.0751 8.49985H12.3037C12.6487 8.49985 12.9285 8.77402 12.9285 9.11225ZM9.23548 9.11225C9.23548 9.45048 8.95579 9.72465 8.61076 9.72465H7.38215C7.03712 9.72465 6.75743 9.45048 6.75743 9.11225C6.75743 8.77402 7.03712 8.49985 7.38215 8.49985H8.61076C8.95576 8.49985 9.23548 8.77402 9.23548 9.11225ZM5.54962 12.7254C5.54962 13.0636 5.26993 13.3378 4.9249 13.3378H3.69629C3.35126 13.3378 3.07157 13.0636 3.07157 12.7254C3.07157 12.3872 3.35126 12.113 3.69629 12.113H4.9249C5.2699 12.113 5.54962 12.3872 5.54962 12.7254ZM12.9285 12.7254C12.9285 13.0636 12.6488 13.3378 12.3037 13.3378H11.0751C10.7301 13.3378 10.4504 13.0636 10.4504 12.7254C10.4504 12.3872 10.7301 12.113 11.0751 12.113H12.3037C12.6487 12.113 12.9285 12.3872 12.9285 12.7254ZM9.23548 12.7254C9.23548 13.0636 8.95579 13.3378 8.61076 13.3378H7.38215C7.03712 13.3378 6.75743 13.0636 6.75743 12.7254C6.75743 12.3872 7.03712 12.113 7.38215 12.113H8.61076C8.95576 12.113 9.23548 12.3872 9.23548 12.7254Z" fill="#FFBB38"/>
</svg>
