<svg width="34" height="34" viewBox="0 0 34 34" fill="none" xmlns="http://www.w3.org/2000/svg">
<g filter="url(#filter0_d_8147_144027)">
<rect x="3" y="2" width="26" height="26" rx="4" fill="#FFBB38"/>
</g>
<path d="M20.1658 15.9398C19.6418 17.0015 18.9325 18.0601 18.2058 19.01C17.4813 19.957 16.7544 20.7768 16.2077 21.3605C16.135 21.438 16.0657 21.5113 16 21.5801C15.9343 21.5113 15.865 21.438 15.7923 21.3605C15.2456 20.7768 14.5187 19.957 13.7942 19.01C13.0675 18.0601 12.3582 17.0015 11.8342 15.9398C11.3048 14.8671 11 13.8619 11 13C11 10.2386 13.2386 8 16 8C18.7614 8 21 10.2386 21 13C21 13.8619 20.6952 14.8671 20.1658 15.9398ZM16 23C16 23 22 17.3137 22 13C22 9.68629 19.3137 7 16 7C12.6863 7 10 9.68629 10 13C10 17.3137 16 23 16 23Z" fill="white"/>
<path d="M16 15C14.8954 15 14 14.1046 14 13C14 11.8954 14.8954 11 16 11C17.1046 11 18 11.8954 18 13C18 14.1046 17.1046 15 16 15ZM16 16C17.6569 16 19 14.6569 19 13C19 11.3431 17.6569 10 16 10C14.3431 10 13 11.3431 13 13C13 14.6569 14.3431 16 16 16Z" fill="white"/>
<defs>
<filter id="filter0_d_8147_144027" x="0" y="0" width="34" height="34" filterUnits="userSpaceOnUse" color-interpolation-filters="sRGB">
<feFlood flood-opacity="0" result="BackgroundImageFix"/>
<feColorMatrix in="SourceAlpha" type="matrix" values="0 0 0 0 0 0 0 0 0 0 0 0 0 0 0 0 0 0 127 0" result="hardAlpha"/>
<feOffset dx="1" dy="2"/>
<feGaussianBlur stdDeviation="2"/>
<feComposite in2="hardAlpha" operator="out"/>
<feColorMatrix type="matrix" values="0 0 0 0 0 0 0 0 0 0 0 0 0 0 0 0 0 0 0.15 0"/>
<feBlend mode="normal" in2="BackgroundImageFix" result="effect1_dropShadow_8147_144027"/>
<feBlend mode="normal" in="SourceGraphic" in2="effect1_dropShadow_8147_144027" result="shape"/>
</filter>
</defs>
</svg>
