<svg width="18" height="19" viewBox="0 0 18 19" fill="none" xmlns="http://www.w3.org/2000/svg">
<path d="M2.82294 8.09961H0.818426C0.366511 8.09961 0 8.46313 0 8.91136V17.8379C0 18.2858 0.366511 18.6493 0.818426 18.6493H2.82294C3.27485 18.6493 3.64098 18.2858 3.64098 17.8379V8.91136C3.64098 8.46313 3.27485 8.09961 2.82294 8.09961Z" fill="#5C5E69"/>
<path d="M7.60907 10.5332H5.60456C5.15226 10.5332 4.78613 10.8967 4.78613 11.345V17.8367C4.78613 18.2853 5.15226 18.6484 5.60456 18.6484H7.60907C8.06098 18.6484 8.42711 18.2849 8.42711 17.8367V11.345C8.42711 10.8967 8.06098 10.5332 7.60907 10.5332Z" fill="#5C5E69"/>
<path d="M12.3948 10.5332H10.3903C9.93839 10.5332 9.57227 10.8967 9.57227 11.345V17.8367C9.57227 18.2853 9.93839 18.6484 10.3903 18.6484H12.3948C12.8471 18.6484 13.2132 18.2849 13.2132 17.8367V11.345C13.2132 10.8967 12.8471 10.5332 12.3948 10.5332Z" fill="#5C5E69"/>
<path d="M17.1819 8.09961H15.1774C14.7255 8.09961 14.3594 8.46313 14.3594 8.91136V17.8379C14.3594 18.2861 14.7255 18.6493 15.1774 18.6493H17.1819C17.6338 18.6493 18.0004 18.2854 18.0004 17.8379V8.91136C18.0004 8.46313 17.6338 8.09961 17.1819 8.09961Z" fill="#5C5E69"/>
<path d="M9.23828 5.68457V7.14549C9.68407 7.11624 10.154 6.90884 10.154 6.42225C10.154 5.92008 9.63888 5.77308 9.23828 5.68457Z" fill="#5C5E69"/>
<path d="M7.95801 3.93649C7.95801 4.30571 8.2349 4.51919 8.7929 4.63011V3.30859C8.28584 3.32341 7.95801 3.61893 7.95801 3.93649Z" fill="#5C5E69"/>
<path d="M9 0.795898C6.51868 0.795898 4.5 2.79849 4.5 5.25918C4.5 7.71911 6.51868 9.7217 9 9.7217C11.4813 9.7217 13.5 7.71911 13.5 5.25918C13.5 2.79849 11.4813 0.795898 9 0.795898ZM9.2386 7.89878V8.35575C9.2386 8.48148 9.14132 8.60683 9.01417 8.60683C8.88855 8.60683 8.79243 8.48148 8.79243 8.35575V7.89878C7.53511 7.8684 6.9097 7.12312 6.9097 6.54005C6.9097 6.24566 7.08932 6.07549 7.37043 6.07549C8.20379 6.07549 7.55579 7.09387 8.79243 7.14515V5.60295C7.68945 5.40428 7.02153 4.92453 7.02153 4.10556C7.02153 3.10237 7.86255 2.58501 8.79243 2.55614V2.16261C8.79243 2.03688 8.88855 1.91153 9.01417 1.91153C9.14132 1.91153 9.2386 2.03688 9.2386 2.16261V2.55614C9.81843 2.57133 11.0091 2.9322 11.0091 3.65582C11.0091 3.94337 10.7923 4.11278 10.5392 4.11278C10.0551 4.11278 10.062 3.32383 9.2386 3.30863V4.71067C10.2206 4.91769 11.0903 5.20524 11.0903 6.34176C11.0903 7.33014 10.3466 7.83155 9.2386 7.89878Z" fill="#5C5E69"/>
</svg>
