<svg width="37" height="37" viewBox="0 0 37 37" fill="none" xmlns="http://www.w3.org/2000/svg">
<g filter="url(#filter0_d_6112_100714)">
<rect x="3" y="2" width="29" height="29" rx="5" fill="#718EBF"/>
</g>
<g clip-path="url(#clip0_6112_100714)">
<path d="M12.375 18.4258C12.4745 18.4258 12.5698 18.4653 12.6402 18.5356C12.7105 18.6059 12.75 18.7013 12.75 18.8008V20.6758C12.75 20.8747 12.829 21.0655 12.9697 21.2061C13.1103 21.3468 13.3011 21.4258 13.5 21.4258H22.5C22.6989 21.4258 22.8897 21.3468 23.0303 21.2061C23.171 21.0655 23.25 20.8747 23.25 20.6758V18.8008C23.25 18.7013 23.2895 18.6059 23.3598 18.5356C23.4302 18.4653 23.5255 18.4258 23.625 18.4258C23.7245 18.4258 23.8198 18.4653 23.8902 18.5356C23.9605 18.6059 24 18.7013 24 18.8008V20.6758C24 21.0736 23.842 21.4551 23.5607 21.7364C23.2794 22.0177 22.8978 22.1758 22.5 22.1758H13.5C13.1022 22.1758 12.7206 22.0177 12.4393 21.7364C12.158 21.4551 12 21.0736 12 20.6758V18.8008C12 18.7013 12.0395 18.6059 12.1098 18.5356C12.1802 18.4653 12.2755 18.4258 12.375 18.4258Z" fill="white"/>
<path d="M18.266 11.8595C18.2312 11.8246 18.1898 11.7969 18.1442 11.778C18.0987 11.7591 18.0498 11.7493 18.0005 11.7493C17.9512 11.7493 17.9023 11.7591 17.8568 11.778C17.8112 11.7969 17.7698 11.8246 17.735 11.8595L15.485 14.1095C15.4146 14.1799 15.375 14.2754 15.375 14.375C15.375 14.4746 15.4146 14.5701 15.485 14.6405C15.5554 14.7109 15.6509 14.7505 15.7505 14.7505C15.8501 14.7505 15.9456 14.7109 16.016 14.6405L17.6255 13.0302L17.6255 19.625C17.6255 19.7245 17.665 19.8198 17.7353 19.8902C17.8057 19.9605 17.901 20 18.0005 20C18.1 20 18.1953 19.9605 18.2657 19.8902C18.336 19.8198 18.3755 19.7245 18.3755 19.625L18.3755 13.0302L19.985 14.6405C20.0554 14.7109 20.1509 14.7505 20.2505 14.7505C20.3501 14.7505 20.4456 14.7109 20.516 14.6405C20.5864 14.5701 20.626 14.4746 20.626 14.375C20.626 14.2754 20.5864 14.1799 20.516 14.1095L18.266 11.8595Z" fill="white"/>
</g>
<defs>
<filter id="filter0_d_6112_100714" x="0" y="0" width="37" height="37" filterUnits="userSpaceOnUse" color-interpolation-filters="sRGB">
<feFlood flood-opacity="0" result="BackgroundImageFix"/>
<feColorMatrix in="SourceAlpha" type="matrix" values="0 0 0 0 0 0 0 0 0 0 0 0 0 0 0 0 0 0 127 0" result="hardAlpha"/>
<feOffset dx="1" dy="2"/>
<feGaussianBlur stdDeviation="2"/>
<feComposite in2="hardAlpha" operator="out"/>
<feColorMatrix type="matrix" values="0 0 0 0 0 0 0 0 0 0 0 0 0 0 0 0 0 0 0.15 0"/>
<feBlend mode="normal" in2="BackgroundImageFix" result="effect1_dropShadow_6112_100714"/>
<feBlend mode="normal" in="SourceGraphic" in2="effect1_dropShadow_6112_100714" result="shape"/>
</filter>
<clipPath id="clip0_6112_100714">
<rect width="12" height="12" fill="white" transform="translate(12 11)"/>
</clipPath>
</defs>
</svg>
