<svg width="16" height="12" viewBox="0 0 16 12" fill="none" xmlns="http://www.w3.org/2000/svg">
<path d="M14.5 1C14.7761 1 15 1.22386 15 1.5V10.5C15 10.7761 14.7761 11 14.5 11H1.5C1.22386 11 1 10.7761 1 10.5V1.5C1 1.22386 1.22386 1 1.5 1H14.5ZM1.5 0C0.671573 0 0 0.671573 0 1.5V10.5C0 11.3284 0.671573 12 1.5 12H14.5C15.3284 12 16 11.3284 16 10.5V1.5C16 0.671573 15.3284 0 14.5 0H1.5Z" fill="white"/>
<path d="M5 6C5 5.72386 5.22386 5.5 5.5 5.5H12.5C12.7761 5.5 13 5.72386 13 6C13 6.27614 12.7761 6.5 12.5 6.5H5.5C5.22386 6.5 5 6.27614 5 6Z" fill="white"/>
<path d="M5 3.5C5 3.22386 5.22386 3 5.5 3H12.5C12.7761 3 13 3.22386 13 3.5C13 3.77614 12.7761 4 12.5 4H5.5C5.22386 4 5 3.77614 5 3.5Z" fill="white"/>
<path d="M5 8.5C5 8.22386 5.22386 8 5.5 8H12.5C12.7761 8 13 8.22386 13 8.5C13 8.77614 12.7761 9 12.5 9H5.5C5.22386 9 5 8.77614 5 8.5Z" fill="white"/>
<path d="M4 3.5C4 3.77614 3.77614 4 3.5 4C3.22386 4 3 3.77614 3 3.5C3 3.22386 3.22386 3 3.5 3C3.77614 3 4 3.22386 4 3.5Z" fill="white"/>
<path d="M4 6C4 6.27614 3.77614 6.5 3.5 6.5C3.22386 6.5 3 6.27614 3 6C3 5.72386 3.22386 5.5 3.5 5.5C3.77614 5.5 4 5.72386 4 6Z" fill="white"/>
<path d="M4 8.5C4 8.77614 3.77614 9 3.5 9C3.22386 9 3 8.77614 3 8.5C3 8.22386 3.22386 8 3.5 8C3.77614 8 4 8.22386 4 8.5Z" fill="white"/>
</svg>
