<svg width="25" height="25" viewBox="0 0 25 25" fill="none" xmlns="http://www.w3.org/2000/svg">
<g clip-path="url(#clip0_1491_1653)">
<path d="M11.4609 24.5195C9.39404 24.5195 7.71094 22.8375 7.71094 20.7695C7.71094 20.3555 8.04694 20.0195 8.46094 20.0195C8.87494 20.0195 9.21094 20.3555 9.21094 20.7695C9.21094 22.0106 10.2209 23.0195 11.4609 23.0195C12.7009 23.0195 13.7109 22.0106 13.7109 20.7695C13.7109 20.3555 14.0469 20.0195 14.4609 20.0195C14.8749 20.0195 15.2109 20.3555 15.2109 20.7695C15.2109 22.8375 13.528 24.5195 11.4609 24.5195Z" fill="#FE5C73"/>
<path d="M19.7109 21.5195H3.21088C2.24591 21.5195 1.46094 20.7346 1.46094 19.7696C1.46094 19.2574 1.68396 18.7726 2.07288 18.4395C2.09796 18.4175 2.12488 18.3976 2.15289 18.3795C3.62085 17.0984 4.46094 15.2555 4.46094 13.3094V10.5195C4.46094 6.65961 7.60193 3.51953 11.4609 3.51953C11.6209 3.51953 11.7939 3.52246 11.954 3.54956C12.3629 3.61749 12.639 4.00458 12.5709 4.41254C12.5029 4.8205 12.1089 5.09662 11.7079 5.0285C11.6279 5.0155 11.54 5.01953 11.4609 5.01953C8.42902 5.01953 5.96094 7.48651 5.96094 10.5195V13.3094C5.96094 15.7255 4.90186 18.0116 3.05798 19.5804C3.04297 19.5925 3.02997 19.6035 3.01385 19.6145C2.98694 19.6486 2.96094 19.7006 2.96094 19.7696C2.96094 19.9055 3.07501 20.0195 3.21088 20.0195H19.7109C19.8469 20.0195 19.961 19.9055 19.961 19.7696C19.961 19.6995 19.935 19.6486 19.907 19.6145C19.892 19.6035 19.879 19.5925 19.864 19.5804C18.019 18.0105 16.961 15.7255 16.961 13.3094V12.2196C16.961 11.8056 17.297 11.4696 17.711 11.4696C18.125 11.4696 18.461 11.8056 18.461 12.2196V13.3094C18.461 15.2566 19.302 17.1005 20.772 18.3826C20.7989 18.4005 20.8249 18.4196 20.8489 18.4406C21.238 18.7726 21.461 19.2574 21.461 19.7696C21.461 20.7346 20.676 21.5195 19.7109 21.5195Z" fill="#FE5C73"/>
<path d="M18.461 10.5195C15.704 10.5195 13.4609 8.27661 13.4609 5.51959C13.4609 2.76257 15.704 0.519531 18.461 0.519531C21.218 0.519531 23.4609 2.76257 23.4609 5.51959C23.4609 8.27661 21.218 10.5195 18.461 10.5195ZM18.461 2.01953C16.5309 2.01953 14.9609 3.58948 14.9609 5.51959C14.9609 7.44952 16.5309 9.01947 18.461 9.01947C20.3909 9.01947 21.9609 7.44952 21.9609 5.51959C21.9609 3.58948 20.3909 2.01953 18.461 2.01953Z" fill="#FE5C73"/>
</g>
<defs>
<clipPath id="clip0_1491_1653">
<rect width="24" height="24" fill="white" transform="translate(0.476562 0.519531)"/>
</clipPath>
</defs>
</svg>
