<svg width="18" height="19" viewBox="0 0 18 19" fill="none" xmlns="http://www.w3.org/2000/svg">
<path d="M3.46434 12.4986C3.64534 12.6054 3.80075 12.7445 3.92477 12.9051H6.26849V10.651L5.15716 9.96761C4.90965 9.81538 4.8334 9.49301 4.98685 9.24752C5.14032 9.0021 5.46524 8.92647 5.71286 9.07859L6.79578 9.74454L7.73971 9.16409C5.85699 6.60352 6.28937 2.97531 8.79546 0.927488C4.66738 -0.444145 0.33699 2.6049 0.317445 6.98398C0.307251 9.3063 1.55381 11.3706 3.46434 12.4986Z" fill="#5C5E69"/>
<path d="M4.25488 13.9512H9.24661V15.1366H4.25488V13.9512Z" fill="#5C5E69"/>
<path d="M7.32324 10.6515V12.9056H9.56913C9.6884 12.7495 9.83717 12.6158 10.0103 12.5146C10.4896 12.2349 10.9295 11.8936 11.3195 11.503C10.218 11.257 9.22878 10.7137 8.44216 9.96289C8.41217 9.98221 8.19602 10.1148 7.32324 10.6515Z" fill="#5C5E69"/>
<path d="M12.6558 0.597656C9.89079 0.597656 7.62891 2.86385 7.62891 5.61838C7.62891 8.20935 9.63421 10.3548 12.2054 10.5838C15.181 10.8475 17.6827 8.50797 17.6827 5.61838C17.6827 2.86918 15.4276 0.597656 12.6558 0.597656ZM13.1838 7.88523V7.99454C13.1838 8.28337 12.9477 8.51753 12.6565 8.51753C12.3653 8.51753 12.1292 8.28337 12.1292 7.99454V7.94436C11.8862 7.9021 11.6643 7.81194 11.3839 7.62998C11.1402 7.47186 11.0719 7.14774 11.2313 6.90602C11.3907 6.66425 11.7175 6.59654 11.9612 6.75463C12.2182 6.92143 12.3015 6.93443 12.6529 6.93203C12.9921 6.92979 13.1273 6.66568 13.1537 6.51001C13.1774 6.37023 13.1508 6.18439 12.8894 6.0928C12.4516 5.93928 12.0027 5.76314 11.6847 5.51573C10.9605 4.95236 11.1791 3.66563 12.1292 3.32321V3.24748C12.1292 2.95865 12.3653 2.72449 12.6565 2.72449C12.9477 2.72449 13.1838 2.95865 13.1838 3.24748V3.27649C13.4436 3.34922 13.6529 3.48077 13.7966 3.62574C14.0008 3.83166 13.998 4.16279 13.7904 4.36532C13.5828 4.56776 13.2492 4.56507 13.0451 4.3595C13.0156 4.33101 12.8532 4.19668 12.5015 4.30173C12.3611 4.34367 12.3234 4.48809 12.3152 4.53136C12.298 4.62166 12.3225 4.68253 12.3355 4.69272C12.5344 4.84745 12.9048 4.98876 13.2409 5.10661C14.6307 5.59383 14.4614 7.42712 13.1838 7.88523Z" fill="#5C5E69"/>
<path d="M5.09863 16.8102C5.09863 17.7138 5.8398 18.4489 6.75082 18.4489C7.66185 18.4489 8.40301 17.7138 8.40301 16.8102V16.1826H5.09863V16.8102Z" fill="#5C5E69"/>
</svg>
