<svg width="16" height="17" viewBox="0 0 16 17" fill="none" xmlns="http://www.w3.org/2000/svg">
<path d="M16 8.5C16 12.9183 12.4183 16.5 8 16.5C3.58172 16.5 0 12.9183 0 8.5C0 4.08172 3.58172 0.5 8 0.5C12.4183 0.5 16 4.08172 16 8.5ZM5.35355 5.14645C5.15829 4.95118 4.84171 4.95118 4.64645 5.14645C4.45118 5.34171 4.45118 5.65829 4.64645 5.85355L7.29289 8.5L4.64645 11.1464C4.45118 11.3417 4.45118 11.6583 4.64645 11.8536C4.84171 12.0488 5.15829 12.0488 5.35355 11.8536L8 9.20711L10.6464 11.8536C10.8417 12.0488 11.1583 12.0488 11.3536 11.8536C11.5488 11.6583 11.5488 11.3417 11.3536 11.1464L8.70711 8.5L11.3536 5.85355C11.5488 5.65829 11.5488 5.34171 11.3536 5.14645C11.1583 4.95118 10.8417 4.95118 10.6464 5.14645L8 7.79289L5.35355 5.14645Z" fill="#FF4B4A"/>
</svg>
