<svg width="37" height="37" viewBox="0 0 37 37" fill="none" xmlns="http://www.w3.org/2000/svg">
<g filter="url(#filter0_d_4406_71225)">
<rect x="3" y="2" width="29" height="29" rx="5" fill="#FE2C2C"/>
</g>
<path fill-rule="evenodd" clip-rule="evenodd" d="M25 17C25 20.866 21.866 24 18 24C16.247 24 14.6444 23.3556 13.4164 22.2907L23.2907 12.4164C24.3556 13.6444 25 15.247 25 17ZM12.7093 21.5836L22.5836 11.7093C21.3556 10.6444 19.753 10 18 10C14.134 10 11 13.134 11 17C11 18.753 11.6444 20.3556 12.7093 21.5836ZM26 17C26 21.4183 22.4183 25 18 25C13.5817 25 10 21.4183 10 17C10 12.5817 13.5817 9 18 9C22.4183 9 26 12.5817 26 17Z" fill="#FFFAFA"/>
<defs>
<filter id="filter0_d_4406_71225" x="0" y="0" width="37" height="37" filterUnits="userSpaceOnUse" color-interpolation-filters="sRGB">
<feFlood flood-opacity="0" result="BackgroundImageFix"/>
<feColorMatrix in="SourceAlpha" type="matrix" values="0 0 0 0 0 0 0 0 0 0 0 0 0 0 0 0 0 0 127 0" result="hardAlpha"/>
<feOffset dx="1" dy="2"/>
<feGaussianBlur stdDeviation="2"/>
<feComposite in2="hardAlpha" operator="out"/>
<feColorMatrix type="matrix" values="0 0 0 0 0 0 0 0 0 0 0 0 0 0 0 0 0 0 0.15 0"/>
<feBlend mode="normal" in2="BackgroundImageFix" result="effect1_dropShadow_4406_71225"/>
<feBlend mode="normal" in="SourceGraphic" in2="effect1_dropShadow_4406_71225" result="shape"/>
</filter>
</defs>
</svg>
