<svg width="37" height="37" viewBox="0 0 37 37" fill="none" xmlns="http://www.w3.org/2000/svg">
<g filter="url(#filter0_d_4045_73296)">
<rect x="3" y="2" width="29" height="29" rx="5" fill="#43AC43"/>
</g>
<path d="M14.6875 10.875V9H10V13.6875H11.875V19.3125H10V24H14.6875V22.125H20.3125V24H25V19.3125H23.125V13.6875H25V9H20.3125V10.875H14.6875ZM20.3125 11.8125V13.6875H22.1875V19.3125H20.3125V21.1875H14.6875V19.3125H12.8125V13.6875H14.6875V11.8125H20.3125ZM21.25 9.9375H24.0625V12.75H21.25V9.9375ZM24.0625 20.25V23.0625H21.25V20.25H24.0625ZM13.75 23.0625H10.9375V20.25H13.75V23.0625ZM10.9375 12.75V9.9375H13.75V12.75H10.9375Z" fill="white"/>
<defs>
<filter id="filter0_d_4045_73296" x="0" y="0" width="37" height="37" filterUnits="userSpaceOnUse" color-interpolation-filters="sRGB">
<feFlood flood-opacity="0" result="BackgroundImageFix"/>
<feColorMatrix in="SourceAlpha" type="matrix" values="0 0 0 0 0 0 0 0 0 0 0 0 0 0 0 0 0 0 127 0" result="hardAlpha"/>
<feOffset dx="1" dy="2"/>
<feGaussianBlur stdDeviation="2"/>
<feComposite in2="hardAlpha" operator="out"/>
<feColorMatrix type="matrix" values="0 0 0 0 0 0 0 0 0 0 0 0 0 0 0 0 0 0 0.15 0"/>
<feBlend mode="normal" in2="BackgroundImageFix" result="effect1_dropShadow_4045_73296"/>
<feBlend mode="normal" in="SourceGraphic" in2="effect1_dropShadow_4045_73296" result="shape"/>
</filter>
</defs>
</svg>
