<svg width="18" height="19" viewBox="0 0 18 19" fill="none" xmlns="http://www.w3.org/2000/svg">
<g clip-path="url(#clip0_927_1948)">
<path d="M16.3429 7.13883H15.9608C15.8367 6.75353 15.68 6.37924 15.4924 6.01963L15.763 5.75121C16.4192 5.10107 16.4017 4.05917 15.7633 3.42664L14.9648 2.63476C14.3275 2.00177 13.2768 1.98343 12.6211 2.63451L12.3503 2.90314C11.9877 2.71708 11.6103 2.5617 11.2219 2.43858V2.05951C11.2219 1.15329 10.4785 0.416016 9.56482 0.416016H8.43514C7.52147 0.416016 6.77813 1.15329 6.77813 2.05951V2.43858C6.38968 2.56167 6.01228 2.71705 5.64971 2.90314L5.37912 2.63476C4.72475 1.98496 3.67411 2.0002 3.03546 2.63455L2.23696 3.42646C1.5988 4.05872 1.58034 5.10068 2.23675 5.75103L2.50759 6.01967C2.31996 6.37927 2.16334 6.75353 2.0392 7.13887H1.65705C0.743379 7.13883 0 7.87611 0 8.78233V9.90283C0 10.809 0.743379 11.5463 1.65705 11.5463H2.0392C2.16334 11.9316 2.31996 12.3059 2.50759 12.6655L2.23696 12.934C1.58077 13.5841 1.59834 14.626 2.23675 15.2585L3.03518 16.0504C3.67253 16.6834 4.72321 16.7017 5.37887 16.0506L5.64971 15.782C6.01228 15.9681 6.38968 16.1235 6.77813 16.2466V16.6256C6.77813 17.5319 7.5215 18.2691 8.43518 18.2691H9.56485C10.4785 18.2691 11.2219 17.5319 11.2219 16.6256V16.2466C11.6104 16.1235 11.9878 15.9681 12.3503 15.782L12.6209 16.0504C13.2753 16.7002 14.3259 16.685 14.9646 16.0506L15.7631 15.2587C16.4012 14.6264 16.4197 13.5844 15.7633 12.9341L15.4924 12.6655C15.6801 12.3059 15.8367 11.9316 15.9608 11.5463H16.343C17.2567 11.5463 18 10.809 18 9.90276V8.78226C18 7.87611 17.2566 7.13883 16.3429 7.13883ZM9 13.227C6.84046 13.227 5.08359 11.4845 5.08359 9.34258C5.08359 7.20069 6.84046 5.45813 9 5.45813C11.1595 5.45813 12.9164 7.20069 12.9164 9.34258C12.9164 11.4845 11.1595 13.227 9 13.227Z" fill="#5C5E69"/>
</g>
<defs>
<clipPath id="clip0_927_1948">
<rect width="18" height="17.8531" fill="white" transform="translate(0 0.416016)"/>
</clipPath>
</defs>
</svg>
