<svg width="25" height="25" viewBox="0 0 25 25" fill="none" xmlns="http://www.w3.org/2000/svg">
<g clip-path="url(#clip0_1491_1636)">
<path d="M13.2765 24.5195H11.7703C10.5521 24.5195 9.56089 23.5284 9.56089 22.3102V21.8006C9.04297 21.6351 8.53977 21.4263 8.05634 21.1761L7.69522 21.5372C6.82058 22.4129 5.41953 22.3872 4.5703 21.5369L3.50572 20.4723C2.65498 19.6225 2.63052 18.222 3.506 17.3474L3.86684 16.9866C3.61667 16.5032 3.40784 16 3.24233 15.482H2.7328C1.51461 15.482 0.523438 14.4909 0.523438 13.2727V11.7664C0.523438 10.5482 1.51461 9.55703 2.73284 9.55703H3.24238C3.40789 9.03906 3.61672 8.53591 3.86689 8.05248L3.50577 7.69141C2.6308 6.81738 2.65494 5.41666 3.50605 4.56648L4.57072 3.50186C5.42192 2.64948 6.82264 2.6282 7.69559 3.50214L8.05639 3.86294C8.53981 3.61281 9.04302 3.40394 9.56094 3.23842V2.72889C9.56094 1.51066 10.5521 0.519531 11.7703 0.519531H13.2766C14.4948 0.519531 15.4859 1.51066 15.4859 2.72889V3.23847C16.0039 3.40394 16.5071 3.61281 16.9905 3.86298L17.3516 3.50186C18.2262 2.62614 19.6273 2.65183 20.4765 3.50219L21.5411 4.56672C22.3918 5.41652 22.4163 6.81709 21.5408 7.69164L21.18 8.05248C21.4302 8.53591 21.639 9.03902 21.8045 9.55703H22.314C23.5323 9.55703 24.5234 10.5482 24.5234 11.7664V13.2727C24.5234 14.4909 23.5323 15.482 22.314 15.482H21.8045C21.639 16 21.4302 16.5032 21.18 16.9866L21.5411 17.3477C22.4161 18.2217 22.3919 19.6225 21.5408 20.4726L20.4762 21.5373C19.625 22.3896 18.2242 22.4109 17.3513 21.537L16.9905 21.1762C16.5071 21.4263 16.0039 21.6352 15.4859 21.8007V22.3103C15.4859 23.5284 14.4948 24.5195 13.2765 24.5195ZM8.29142 19.6994C8.963 20.0965 9.68581 20.3966 10.4398 20.5912C10.7502 20.6713 10.9672 20.9513 10.9672 21.272V22.3102C10.9672 22.753 11.3275 23.1133 11.7703 23.1133H13.2766C13.7194 23.1133 14.0797 22.753 14.0797 22.3102V21.272C14.0797 20.9513 14.2967 20.6713 14.6072 20.5912C15.3611 20.3966 16.0839 20.0965 16.7555 19.6994C17.0318 19.536 17.3836 19.5804 17.6106 19.8074L18.346 20.5428C18.6631 20.8603 19.1722 20.8529 19.4815 20.5432L20.5468 19.4779C20.8554 19.1697 20.8657 18.6605 20.5471 18.3423L19.8114 17.6066C19.5845 17.3797 19.54 17.0278 19.7034 16.7515C20.1005 16.08 20.4005 15.3572 20.5951 14.6032C20.6753 14.2927 20.9553 14.0758 21.2759 14.0758H22.3141C22.7569 14.0758 23.1172 13.7155 23.1172 13.2727V11.7664C23.1172 11.3236 22.7569 10.9633 22.3141 10.9633H21.2759C20.9553 10.9633 20.6753 10.7464 20.5951 10.4359C20.4005 9.68195 20.1005 8.95914 19.7034 8.28761C19.54 8.01133 19.5845 7.65948 19.8114 7.43252L20.5468 6.69709C20.8647 6.37956 20.8565 5.8705 20.5471 5.56155L19.4819 4.49631C19.1731 4.18712 18.6639 4.17808 18.3463 4.49603L17.6107 5.23173C17.3837 5.45875 17.0318 5.50319 16.7555 5.33978C16.084 4.94261 15.3612 4.64256 14.6072 4.44798C14.2967 4.36787 14.0798 4.08784 14.0798 3.76717V2.72889C14.0798 2.28606 13.7195 1.92578 13.2766 1.92578H11.7704C11.3276 1.92578 10.9672 2.28606 10.9672 2.72889V3.76708C10.9672 4.08775 10.7503 4.36778 10.4398 4.44789C9.68586 4.64247 8.96305 4.94252 8.29147 5.33969C8.01509 5.50305 7.6633 5.45861 7.43633 5.23164L6.70095 4.49622C6.38389 4.17878 5.87469 4.18614 5.56545 4.49589L4.50012 5.56117C4.19159 5.86933 4.18128 6.37853 4.49984 6.69672L5.23555 7.43242C5.46252 7.65939 5.50695 8.01123 5.34359 8.28752C4.94642 8.95905 4.64642 9.68186 4.45184 10.4358C4.37169 10.7463 4.09166 10.9632 3.77103 10.9632H2.73284C2.29002 10.9633 1.92969 11.3236 1.92969 11.7664V13.2727C1.92969 13.7155 2.29002 14.0758 2.73284 14.0758H3.77098C4.09166 14.0758 4.37164 14.2927 4.4518 14.6032C4.64638 15.3572 4.94642 16.08 5.34355 16.7515C5.50691 17.0278 5.46247 17.3796 5.2355 17.6066L4.50008 18.342C4.18217 18.6595 4.19047 19.1686 4.4998 19.4776L5.56503 20.5428C5.8738 20.852 6.38305 20.861 6.70058 20.5431L7.43623 19.8074C7.60348 19.6402 7.95144 19.4983 8.29142 19.6994Z" fill="#718EBF"/>
<path d="M12.5266 17.7416C9.64717 17.7416 7.30469 15.3991 7.30469 12.5197C7.30469 9.64038 9.64717 7.29785 12.5266 7.29785C15.406 7.29785 17.7484 9.64038 17.7484 12.5197C17.7484 15.3991 15.406 17.7416 12.5266 17.7416ZM12.5266 8.7041C10.4226 8.7041 8.71094 10.4158 8.71094 12.5197C8.71094 14.6237 10.4226 16.3354 12.5266 16.3354C14.6305 16.3354 16.3422 14.6237 16.3422 12.5197C16.3422 10.4158 14.6305 8.7041 12.5266 8.7041Z" fill="#718EBF"/>
</g>
<defs>
<clipPath id="clip0_1491_1636">
<rect width="24" height="24" fill="white" transform="translate(0.523438 0.519531)"/>
</clipPath>
</defs>
</svg>
