<svg width="17" height="22" viewBox="0 0 17 22" fill="none" xmlns="http://www.w3.org/2000/svg">
<path d="M16.5 19.25V6.1875L10.3125 0H2.75C1.23122 0 0 1.23122 0 2.75V19.25C0 20.7688 1.23122 22 2.75 22H13.75C15.2688 22 16.5 20.7688 16.5 19.25ZM10.3125 4.125C10.3125 5.26409 11.2359 6.1875 12.375 6.1875H15.125V12.375H1.375V2.75C1.375 1.99061 1.99061 1.375 2.75 1.375H10.3125V4.125ZM1.375 16.5V13.75H4.125V16.5H1.375ZM1.375 17.875H4.125V20.625H2.75C1.99061 20.625 1.375 20.0094 1.375 19.25V17.875ZM5.5 20.625V17.875H15.125V19.25C15.125 20.0094 14.5094 20.625 13.75 20.625H5.5ZM15.125 16.5H5.5V13.75H15.125V16.5Z" fill="#5C5E69"/>
<path fill-rule="evenodd" clip-rule="evenodd" d="M6.49324 5.10985C6.55767 5.17429 6.55767 5.27876 6.49324 5.3432L5.50324 6.3332C5.47229 6.36414 5.43032 6.38152 5.38656 6.38152C5.3428 6.38152 5.30083 6.36414 5.26989 6.3332L4.77489 5.8382C4.71045 5.77376 4.71045 5.66929 4.77489 5.60485C4.83933 5.54041 4.9438 5.54041 5.00824 5.60485L5.38656 5.98318L6.25989 5.10985C6.32433 5.04541 6.4288 5.04541 6.49324 5.10985Z" fill="#5C5E69"/>
<path d="M6.46819 3.91023L6.16425 3.59897L6.40036 3.36842L6.60557 3.57857L6.89928 3.57508C7.43476 3.5687 7.87048 4.00442 7.8641 4.5399L7.86061 4.83361L8.07076 5.03882C8.45391 5.41295 8.45391 6.02916 8.07076 6.40329L7.86061 6.6085L7.8641 6.90221C7.87048 7.43769 7.43476 7.87341 6.89928 7.86703L6.60557 7.86354L6.40036 8.07369C6.02623 8.45684 5.41002 8.45684 5.03589 8.07369L4.83068 7.86354L4.53697 7.86703C4.00149 7.87341 3.56577 7.43769 3.57215 6.90221L3.57564 6.6085L3.36549 6.40329C2.98234 6.02916 2.98234 5.41295 3.36549 5.03882L3.57564 4.83361L3.57215 4.5399C3.56577 4.00442 4.00149 3.5687 4.53697 3.57508L4.83068 3.57857L5.03589 3.36842C5.41002 2.98527 6.02623 2.98527 6.40036 3.36842L6.16425 3.59897C5.9196 3.34842 5.51665 3.34842 5.272 3.59897L4.96806 3.91023L4.53304 3.90505C4.18288 3.90088 3.89795 4.18581 3.90212 4.53597L3.9073 4.97099L3.59604 5.27493C3.34549 5.51958 3.34549 5.92253 3.59604 6.16718L3.9073 6.47112L3.90212 6.90614C3.89795 7.2563 4.18288 7.54123 4.53304 7.53706L4.96806 7.53188L5.272 7.84314C5.51665 8.09369 5.9196 8.09369 6.16425 7.84314L6.46819 7.53188L6.90321 7.53706C7.25337 7.54123 7.5383 7.2563 7.53413 6.90614L7.52895 6.47112L7.84021 6.16718C8.09076 5.92253 8.09076 5.51958 7.84021 5.27493L7.52895 4.97099L7.53413 4.53597C7.5383 4.18581 7.25337 3.90088 6.90321 3.90505L6.46819 3.91023Z" fill="#5C5E69"/>
</svg>
