<svg width="37" height="37" viewBox="0 0 37 37" fill="none" xmlns="http://www.w3.org/2000/svg">
<g filter="url(#filter0_d_8917_785649)">
<rect x="3" y="2" width="29" height="29" rx="5" fill="#128B9B"/>
</g>
<path fill-rule="evenodd" clip-rule="evenodd" d="M9 9H10V24H25V25H9V9ZM23.8166 20.887C24.0303 20.7121 24.0618 20.3971 23.887 20.1834L19.387 14.6834C19.2975 14.5741 19.166 14.5077 19.0249 14.5006C18.8838 14.4936 18.7463 14.5466 18.6464 14.6465L16.0602 17.2327L12.4044 12.2059C12.2419 11.9826 11.9292 11.9332 11.7059 12.0957C11.4826 12.2581 11.4332 12.5708 11.5956 12.7941L15.5956 18.2941C15.6816 18.4124 15.8151 18.4871 15.9609 18.4985C16.1067 18.5099 16.2502 18.457 16.3536 18.3536L18.9629 15.7442L23.113 20.8166C23.2879 21.0304 23.6029 21.0619 23.8166 20.887Z" fill="white"/>
<defs>
<filter id="filter0_d_8917_785649" x="0" y="0" width="37" height="37" filterUnits="userSpaceOnUse" color-interpolation-filters="sRGB">
<feFlood flood-opacity="0" result="BackgroundImageFix"/>
<feColorMatrix in="SourceAlpha" type="matrix" values="0 0 0 0 0 0 0 0 0 0 0 0 0 0 0 0 0 0 127 0" result="hardAlpha"/>
<feOffset dx="1" dy="2"/>
<feGaussianBlur stdDeviation="2"/>
<feComposite in2="hardAlpha" operator="out"/>
<feColorMatrix type="matrix" values="0 0 0 0 0 0 0 0 0 0 0 0 0 0 0 0 0 0 0.15 0"/>
<feBlend mode="normal" in2="BackgroundImageFix" result="effect1_dropShadow_8917_785649"/>
<feBlend mode="normal" in="SourceGraphic" in2="effect1_dropShadow_8917_785649" result="shape"/>
</filter>
</defs>
</svg>
