<svg width="29" height="29" viewBox="0 0 29 29" fill="none" xmlns="http://www.w3.org/2000/svg">
<rect width="29" height="29" rx="5" fill="#25B003"/>
<path d="M7.5 16.9C7.77614 16.9 8 17.1239 8 17.4V19.9C8 20.4523 8.44772 20.9 9 20.9H21C21.5523 20.9 22 20.4523 22 19.9V17.4C22 17.1239 22.2239 16.9 22.5 16.9C22.7761 16.9 23 17.1239 23 17.4V19.9C23 21.0046 22.1046 21.9 21 21.9H9C7.89543 21.9 7 21.0046 7 19.9V17.4C7 17.1239 7.22386 16.9 7.5 16.9Z" fill="white"/>
<path d="M14.6464 8.14645C14.8417 7.95118 15.1583 7.95118 15.3536 8.14645L18.3536 11.1464C18.5488 11.3417 18.5488 11.6583 18.3536 11.8536C18.1583 12.0488 17.8417 12.0488 17.6464 11.8536L15.5 9.70711V18.5C15.5 18.7761 15.2761 19 15 19C14.7239 19 14.5 18.7761 14.5 18.5V9.70711L12.3536 11.8536C12.1583 12.0488 11.8417 12.0488 11.6464 11.8536C11.4512 11.6583 11.4512 11.3417 11.6464 11.1464L14.6464 8.14645Z" fill="white"/>
</svg>
