<svg width="29" height="29" viewBox="0 0 29 29" fill="none" xmlns="http://www.w3.org/2000/svg">
<rect width="29" height="29" rx="8" fill="#128B9B"/>
<path d="M7.5 16.9C7.77614 16.9 8 17.1239 8 17.4V19.9C8 20.4523 8.44772 20.9 9 20.9H21C21.5523 20.9 22 20.4523 22 19.9V17.4C22 17.1239 22.2239 16.9 22.5 16.9C22.7761 16.9 23 17.1239 23 17.4V19.9C23 21.0046 22.1046 21.9 21 21.9H9C7.89543 21.9 7 21.0046 7 19.9V17.4C7 17.1239 7.22386 16.9 7.5 16.9Z" fill="white"/>
<path d="M14.6464 18.8536C14.8417 19.0488 15.1583 19.0488 15.3536 18.8536L18.3536 15.8536C18.5488 15.6583 18.5488 15.3417 18.3536 15.1464C18.1583 14.9512 17.8417 14.9512 17.6464 15.1464L15.5 17.2929V8.5C15.5 8.22386 15.2761 8 15 8C14.7239 8 14.5 8.22386 14.5 8.5V17.2929L12.3536 15.1464C12.1583 14.9512 11.8417 14.9512 11.6464 15.1464C11.4512 15.3417 11.4512 15.6583 11.6464 15.8536L14.6464 18.8536Z" fill="white"/>
</svg>
