<svg width="100" height="100" viewBox="0 0 100 100" fill="none" xmlns="http://www.w3.org/2000/svg">
<rect x="3.5" y="3.5" width="93" height="93" rx="46.5" fill="#E3E6ED"/>
<rect x="3.5" y="3.5" width="93" height="93" rx="46.5" stroke="#E3E6ED" stroke-width="7" stroke-linecap="round"/>
<path fill-rule="evenodd" clip-rule="evenodd" d="M29.2432 33.1777C28.1386 33.1777 27.2432 34.0732 27.2432 35.1777V64.8211C27.2432 65.9257 28.1386 66.8211 29.2432 66.8211H70.7569C71.8615 66.8211 72.7569 65.9257 72.7569 64.8211V35.1777C72.7569 34.0732 71.8615 33.1777 70.7569 33.1777H29.2432ZM28.2432 35.1777C28.2432 34.6255 28.6909 34.1777 29.2432 34.1777H70.7569C71.3092 34.1777 71.7569 34.6254 71.7569 35.1777V64.8211C71.7569 65.3734 71.3092 65.8211 70.7569 65.8211H29.2432C28.6909 65.8211 28.2432 65.3734 28.2432 64.8211V35.1777ZM50.5 39.6129C50.5 39.3368 50.2762 39.1129 50 39.1129C49.7239 39.1129 49.5 39.3368 49.5 39.6129V60.386C49.5 60.6621 49.7239 60.886 50 60.886C50.2762 60.886 50.5 60.6621 50.5 60.386V39.6129ZM33.1783 42.5805C33.1783 42.3043 33.4022 42.0805 33.6783 42.0805H44.0649C44.341 42.0805 44.5649 42.3043 44.5649 42.5805C44.5649 42.8566 44.341 43.0805 44.0649 43.0805H33.6783C33.4022 43.0805 33.1783 42.8566 33.1783 42.5805ZM33.1783 48.5156C33.1783 48.2395 33.4022 48.0156 33.6783 48.0156H44.0649C44.341 48.0156 44.5649 48.2395 44.5649 48.5156C44.5649 48.7918 44.341 49.0156 44.0649 49.0156H33.6783C33.4022 49.0156 33.1783 48.7918 33.1783 48.5156ZM33.1783 54.4508C33.1783 54.1747 33.4022 53.9508 33.6783 53.9508H44.0649C44.341 53.9508 44.5649 54.1747 44.5649 54.4508C44.5649 54.7269 44.341 54.9508 44.0649 54.9508H33.6783C33.4022 54.9508 33.1783 54.7269 33.1783 54.4508ZM57.419 42.0805C57.1428 42.0805 56.919 42.3043 56.919 42.5805V51.4832C56.919 51.7594 57.1428 51.9832 57.419 51.9832H66.3217C66.5979 51.9832 66.8217 51.7594 66.8217 51.4832V42.5805C66.8217 42.3043 66.5979 42.0805 66.3217 42.0805H57.419ZM57.919 50.9832V43.0805H65.8217V50.9832H57.919Z" fill="#9FA6BC"/>
<path d="M57.919 43.0805V42.5805C57.6428 42.5805 57.419 42.8043 57.419 43.0805H57.919ZM57.919 50.9832H57.419C57.419 51.2594 57.6428 51.4832 57.919 51.4832V50.9832ZM65.8217 43.0805H66.3217C66.3217 42.8043 66.0979 42.5805 65.8217 42.5805V43.0805ZM65.8217 50.9832V51.4832C66.0979 51.4832 66.3217 51.2594 66.3217 50.9832H65.8217ZM27.7432 35.1777C27.7432 34.3493 28.4147 33.6777 29.2432 33.6777V32.6777C27.8625 32.6777 26.7432 33.797 26.7432 35.1777H27.7432ZM27.7432 64.8211V35.1777H26.7432V64.8211H27.7432ZM29.2432 66.3211C28.4147 66.3211 27.7432 65.6496 27.7432 64.8211H26.7432C26.7432 66.2018 27.8625 67.3211 29.2432 67.3211V66.3211ZM70.7569 66.3211H29.2432V67.3211H70.7569V66.3211ZM72.2569 64.8211C72.2569 65.6496 71.5853 66.3211 70.7569 66.3211V67.3211C72.1376 67.3211 73.2569 66.2018 73.2569 64.8211H72.2569ZM72.2569 35.1777V64.8211H73.2569V35.1777H72.2569ZM70.7569 33.6777C71.5853 33.6777 72.2569 34.3493 72.2569 35.1777H73.2569C73.2569 33.797 72.1376 32.6777 70.7569 32.6777V33.6777ZM29.2432 33.6777H70.7569V32.6777H29.2432V33.6777ZM29.2432 33.6777C28.4147 33.6777 27.7432 34.3493 27.7432 35.1777H28.7432C28.7432 34.9016 28.967 34.6777 29.2432 34.6777V33.6777ZM70.7569 33.6777H29.2432V34.6777H70.7569V33.6777ZM72.2569 35.1777C72.2569 34.3493 71.5853 33.6777 70.7569 33.6777V34.6777C71.033 34.6777 71.2569 34.9016 71.2569 35.1777H72.2569ZM72.2569 64.8211V35.1777H71.2569V64.8211H72.2569ZM70.7569 66.3211C71.5853 66.3211 72.2569 65.6496 72.2569 64.8211H71.2569C71.2569 65.0973 71.033 65.3211 70.7569 65.3211V66.3211ZM29.2432 66.3211H70.7569V65.3211H29.2432V66.3211ZM27.7432 64.8211C27.7432 65.6496 28.4147 66.3211 29.2432 66.3211V65.3211C28.967 65.3211 28.7432 65.0973 28.7432 64.8211H27.7432ZM27.7432 35.1777V64.8211H28.7432V35.1777H27.7432ZM50 39.6129H51C51 39.0606 50.5523 38.6129 50 38.6129V39.6129ZM50 39.6129V38.6129C49.4477 38.6129 49 39.0606 49 39.6129H50ZM50 60.386V39.6129H49V60.386H50ZM50 60.386H49C49 60.9382 49.4477 61.386 50 61.386V60.386ZM50 60.386V61.386C50.5523 61.386 51 60.9382 51 60.386H50ZM50 39.6129V60.386H51V39.6129H50ZM33.6783 41.5805C33.126 41.5805 32.6783 42.0282 32.6783 42.5805H33.6783V41.5805ZM44.0649 41.5805H33.6783V42.5805H44.0649V41.5805ZM45.0649 42.5805C45.0649 42.0282 44.6171 41.5805 44.0649 41.5805V42.5805H45.0649ZM44.0649 43.5805C44.6171 43.5805 45.0649 43.1328 45.0649 42.5805H44.0649V43.5805ZM33.6783 43.5805H44.0649V42.5805H33.6783V43.5805ZM32.6783 42.5805C32.6783 43.1328 33.126 43.5805 33.6783 43.5805V42.5805H32.6783ZM33.6783 47.5156C33.126 47.5156 32.6783 47.9634 32.6783 48.5156H33.6783V47.5156ZM44.0649 47.5156H33.6783V48.5156H44.0649V47.5156ZM45.0649 48.5156C45.0649 47.9634 44.6171 47.5156 44.0649 47.5156V48.5156H45.0649ZM44.0649 49.5156C44.6171 49.5156 45.0649 49.0679 45.0649 48.5156H44.0649V49.5156ZM33.6783 49.5156H44.0649V48.5156H33.6783V49.5156ZM32.6783 48.5156C32.6783 49.0679 33.126 49.5156 33.6783 49.5156V48.5156H32.6783ZM33.6783 53.4508C33.126 53.4508 32.6783 53.8985 32.6783 54.4508H33.6783V53.4508ZM44.0649 53.4508H33.6783V54.4508H44.0649V53.4508ZM45.0649 54.4508C45.0649 53.8985 44.6171 53.4508 44.0649 53.4508V54.4508H45.0649ZM44.0649 55.4508C44.6171 55.4508 45.0649 55.0031 45.0649 54.4508H44.0649V55.4508ZM33.6783 55.4508H44.0649V54.4508H33.6783V55.4508ZM32.6783 54.4508C32.6783 55.0031 33.126 55.4508 33.6783 55.4508V54.4508H32.6783ZM57.419 42.5805V41.5805C56.8667 41.5805 56.419 42.0282 56.419 42.5805H57.419ZM57.419 51.4832V42.5805H56.419V51.4832H57.419ZM57.419 51.4832H56.419C56.419 52.0355 56.8667 52.4832 57.419 52.4832V51.4832ZM66.3217 51.4832H57.419V52.4832H66.3217V51.4832ZM66.3217 51.4832V52.4832C66.874 52.4832 67.3217 52.0355 67.3217 51.4832H66.3217ZM66.3217 42.5805V51.4832H67.3217V42.5805H66.3217ZM66.3217 42.5805H67.3217C67.3217 42.0282 66.874 41.5805 66.3217 41.5805V42.5805ZM57.419 42.5805H66.3217V41.5805H57.419V42.5805ZM57.419 43.0805V50.9832H58.419V43.0805H57.419ZM65.8217 42.5805H57.919V43.5805H65.8217V42.5805ZM66.3217 50.9832V43.0805H65.3217V50.9832H66.3217ZM57.919 51.4832H65.8217V50.4832H57.919V51.4832Z" fill="#9FA6BC"/>
</svg>
