<svg width="17" height="14" viewBox="0 0 17 14" fill="none" xmlns="http://www.w3.org/2000/svg">
<path fill-rule="evenodd" clip-rule="evenodd" d="M0.859375 2.49992C0.859375 2.22378 1.08323 1.99992 1.35938 1.99992H1.85938C4.06147 1.99992 5.68639 3.24021 6.73308 4.41774C7.22382 4.96982 7.59879 5.5201 7.85938 5.9499C8.11996 5.5201 8.49493 4.96982 8.98567 4.41774C10.0324 3.24021 11.6573 1.99992 13.8594 1.99992V2.99992C12.0615 2.99992 10.6864 4.00963 9.73308 5.0821C9.25958 5.61479 8.90283 6.14956 8.66452 6.5517C8.55666 6.73371 8.47374 6.88742 8.41583 6.99992C8.47374 7.11242 8.55666 7.26613 8.66452 7.44814C8.90283 7.85029 9.25958 8.38505 9.73308 8.91774C10.6864 9.99021 12.0615 10.9999 13.8594 10.9999V11.9999C11.6573 11.9999 10.0324 10.7596 8.98567 9.5821C8.49493 9.03002 8.11996 8.47974 7.85938 8.04994C7.59879 8.47974 7.22382 9.03002 6.73308 9.5821C5.68639 10.7596 4.06147 11.9999 1.85938 11.9999H1.35938C1.08323 11.9999 0.859375 11.7761 0.859375 11.4999C0.859375 11.2238 1.08323 10.9999 1.35938 10.9999H1.85938C3.65728 10.9999 5.03236 9.99021 5.98567 8.91774C6.45917 8.38505 6.81592 7.85029 7.05423 7.44814C7.16209 7.26613 7.24501 7.11242 7.30292 6.99992C7.24501 6.88742 7.16209 6.73371 7.05423 6.5517C6.81592 6.14956 6.45917 5.61479 5.98567 5.0821C5.03236 4.00963 3.65728 2.99992 1.85938 2.99992H1.35938C1.08323 2.99992 0.859375 2.77606 0.859375 2.49992Z" fill="white"/>
<path d="M13.8594 4.46616V0.533681C13.8594 0.321722 14.1066 0.205932 14.2694 0.341626L16.6289 2.30787C16.7488 2.40781 16.7488 2.59203 16.6289 2.69198L14.2694 4.65822C14.1066 4.79391 13.8594 4.67812 13.8594 4.46616Z" fill="white"/>
<path d="M13.8594 13.4662V9.53368C13.8594 9.32172 14.1066 9.20593 14.2694 9.34163L16.6289 11.3079C16.7488 11.4078 16.7488 11.592 16.6289 11.692L14.2694 13.6582C14.1066 13.7939 13.8594 13.6781 13.8594 13.4662Z" fill="white"/>
</svg>
