<svg width="13" height="15" viewBox="0 0 13 15" fill="none" xmlns="http://www.w3.org/2000/svg">
<path d="M5.21429 1.49972H7.78571C8.02241 1.49972 8.21429 1.6916 8.21429 1.92829V2.78544H4.78571V1.92829C4.78571 1.6916 4.97759 1.49972 5.21429 1.49972ZM9.07143 2.78544V1.92829C9.07143 1.21821 8.49579 0.642578 7.78571 0.642578H5.21429C4.50421 0.642578 3.92857 1.21821 3.92857 1.92829V2.78544H1.79056C1.78765 2.78541 1.78473 2.78541 1.78181 2.78544H0.928571C0.691878 2.78544 0.5 2.97731 0.5 3.21401C0.5 3.4507 0.691878 3.64258 0.928571 3.64258H1.39006L2.121 12.7793C2.19227 13.6702 2.93606 14.3569 3.82982 14.3569H9.17018C10.0639 14.3569 10.8077 13.6702 10.879 12.7793L11.6099 3.64258H12.0714C12.3081 3.64258 12.5 3.4507 12.5 3.21401C12.5 2.97731 12.3081 2.78544 12.0714 2.78544H11.2182C11.2153 2.78541 11.2124 2.78541 11.2094 2.78544H9.07143ZM10.7501 3.64258L10.0246 12.7109C9.98895 13.1564 9.61706 13.4997 9.17018 13.4997H3.82982C3.38294 13.4997 3.01105 13.1564 2.97541 12.7109L2.24994 3.64258H10.7501ZM4.33198 4.50046C4.56826 4.48656 4.77108 4.66684 4.78498 4.90313L5.21355 12.1888C5.22745 12.4251 5.04717 12.6279 4.81088 12.6418C4.5746 12.6557 4.37178 12.4755 4.35788 12.2392L3.92931 4.95346C3.91541 4.71717 4.09569 4.51436 4.33198 4.50046ZM8.66802 4.50046C8.90431 4.51436 9.08459 4.71717 9.07069 4.95346L8.64212 12.2392C8.62822 12.4755 8.4254 12.6557 8.18912 12.6418C7.95283 12.6279 7.77255 12.4251 7.78645 12.1888L8.21503 4.90313C8.22892 4.66684 8.43174 4.48656 8.66802 4.50046ZM6.5 4.49972C6.73669 4.49972 6.92857 4.6916 6.92857 4.92829V12.214C6.92857 12.4507 6.73669 12.6426 6.5 12.6426C6.26331 12.6426 6.07143 12.4507 6.07143 12.214V4.92829C6.07143 4.6916 6.26331 4.49972 6.5 4.49972Z" fill="white"/>
</svg>
