<svg width="29" height="29" viewBox="0 0 29 29" fill="none" xmlns="http://www.w3.org/2000/svg">
<rect width="29" height="29" rx="5" fill="#FFBB38"/>
<g clip-path="url(#clip0_4406_71203)">
<path d="M9.375 16.425C9.47446 16.425 9.56984 16.4646 9.64017 16.5349C9.71049 16.6052 9.75 16.7006 9.75 16.8V18.675C9.75 18.874 9.82902 19.0647 9.96967 19.2054C10.1103 19.346 10.3011 19.425 10.5 19.425H19.5C19.6989 19.425 19.8897 19.346 20.0303 19.2054C20.171 19.0647 20.25 18.874 20.25 18.675V16.8C20.25 16.7006 20.2895 16.6052 20.3598 16.5349C20.4302 16.4646 20.5255 16.425 20.625 16.425C20.7245 16.425 20.8198 16.4646 20.8902 16.5349C20.9605 16.6052 21 16.7006 21 16.8V18.675C21 19.0729 20.842 19.4544 20.5607 19.7357C20.2794 20.017 19.8978 20.175 19.5 20.175H10.5C10.1022 20.175 9.72064 20.017 9.43934 19.7357C9.15804 19.4544 9 19.0729 9 18.675V16.8C9 16.7006 9.03951 16.6052 9.10983 16.5349C9.18016 16.4646 9.27554 16.425 9.375 16.425Z" fill="white"/>
<path d="M14.735 17.8905C14.7698 17.9254 14.8112 17.9531 14.8567 17.972C14.9023 17.9909 14.9511 18.0007 15.0005 18.0007C15.0498 18.0007 15.0986 17.9909 15.1442 17.972C15.1898 17.9531 15.2311 17.9254 15.266 17.8905L17.516 15.6405C17.5864 15.5701 17.6259 15.4746 17.6259 15.375C17.6259 15.2754 17.5864 15.1799 17.516 15.1095C17.4456 15.0391 17.3501 14.9995 17.2505 14.9995C17.1509 14.9995 17.0554 15.0391 16.985 15.1095L15.3755 16.7198V10.125C15.3755 10.0255 15.336 9.93016 15.2656 9.85983C15.1953 9.78951 15.0999 9.75 15.0005 9.75C14.901 9.75 14.8056 9.78951 14.7353 9.85983C14.665 9.93016 14.6255 10.0255 14.6255 10.125V16.7198L13.016 15.1095C12.9456 15.0391 12.8501 14.9995 12.7505 14.9995C12.6509 14.9995 12.5554 15.0391 12.485 15.1095C12.4146 15.1799 12.375 15.2754 12.375 15.375C12.375 15.4746 12.4146 15.5701 12.485 15.6405L14.735 17.8905Z" fill="white"/>
</g>
<defs>
<clipPath id="clip0_4406_71203">
<rect width="12" height="12" fill="white" transform="translate(9 9)"/>
</clipPath>
</defs>
</svg>
