<svg width="125" height="98" viewBox="0 0 125 98" fill="none" xmlns="http://www.w3.org/2000/svg">
<mask id="path-1-inside-1_4045_48694" fill="white">
<rect width="125" height="98" rx="5"/>
</mask>
<rect width="125" height="98" rx="5" fill="#E3E6ED"/>
<rect width="125" height="98" rx="5" stroke="#E3E6ED" stroke-width="14" stroke-linecap="round" mask="url(#path-1-inside-1_4045_48694)"/>
<g clip-path="url(#clip0_4045_48694)">
<path d="M62.5432 62.6806C70.378 62.6806 76.7293 56.1476 76.7293 48.0886C76.7293 40.0297 70.378 33.4966 62.5432 33.4966C54.7085 33.4966 48.3572 40.0297 48.3572 48.0886C48.3572 56.1476 54.7085 62.6806 62.5432 62.6806Z" fill="#9FA6BC"/>
<path d="M88.1692 88.1216V91.6291C88.1692 92.5593 87.8243 93.4514 87.2103 94.1092C86.5963 94.7669 85.7636 98.5036 84.8952 98.5036H39.0596C38.1913 98.5036 37.3586 94.7669 36.7446 94.1092C36.1306 93.4514 35.7856 92.5593 35.7856 91.6291V88.1216C35.7856 82.5403 37.8553 77.1875 41.5392 73.2409C45.2231 69.2943 50.2196 67.0771 55.4295 67.0771H68.5254C73.7352 67.0771 78.7317 69.2943 82.4157 73.2409C86.0996 77.1875 88.1692 82.5403 88.1692 88.1216Z" fill="#9FA6BC"/>
</g>
<defs>
<clipPath id="clip0_4045_48694">
<rect width="110" height="98" fill="white" transform="translate(7.5)"/>
</clipPath>
</defs>
</svg>
