<svg width="11" height="13" viewBox="0 0 11 13" fill="none" xmlns="http://www.w3.org/2000/svg">
<path d="M7.26699 0.0216795L10.467 3.22168H7.26699V0.0216795ZM6.46699 3.22168C6.46699 3.67168 6.81699 4.02168 7.26699 4.02168H10.467V11.6217C10.467 12.2967 9.91699 12.8217 9.26699 12.8217H2.06699C1.39199 12.8217 0.866992 12.2967 0.866992 11.6217V1.22168C0.866992 0.57168 1.39199 0.0216795 2.06699 0.0216795H6.46699V3.22168ZM7.66699 10.4217C7.86699 10.4217 8.06699 10.2467 8.06699 10.0217C8.06699 9.82168 7.86699 9.62168 7.66699 9.62168H3.66699C3.44199 9.62168 3.26699 9.82168 3.26699 10.0217C3.26699 10.2467 3.44199 10.4217 3.66699 10.4217H7.66699ZM7.66699 8.82168C7.86699 8.82168 8.06699 8.64668 8.06699 8.42168C8.06699 8.22168 7.86699 8.02168 7.66699 8.02168H3.66699C3.44199 8.02168 3.26699 8.22168 3.26699 8.42168C3.26699 8.64668 3.44199 8.82168 3.66699 8.82168H7.66699ZM8.06699 6.82168C8.06699 6.62168 7.86699 6.42168 7.66699 6.42168H3.66699C3.44199 6.42168 3.26699 6.62168 3.26699 6.82168C3.26699 7.04668 3.44199 7.22168 3.66699 7.22168H7.66699C7.86699 7.22168 8.06699 7.04668 8.06699 6.82168Z" fill="#6E7891"/>
</svg>
