<svg width="50" height="50" viewBox="0 0 50 50" fill="none" xmlns="http://www.w3.org/2000/svg">
<path fill-rule="evenodd" clip-rule="evenodd" d="M25 12.5C25.8629 12.5 26.5625 13.1996 26.5625 14.0625V16.0437L28.2782 15.0531C29.0256 14.6216 29.9812 14.8777 30.4126 15.625C30.8441 16.3723 30.5881 17.3279 29.8407 17.7594L28.125 18.75L29.8407 19.7406C30.5881 20.1721 30.8441 21.1277 30.4127 21.875C29.9812 22.6223 29.0256 22.8784 28.2782 22.4469L26.5625 21.4563V23.4375C26.5625 24.3004 25.8629 25 25 25C24.137 25 23.4375 24.3004 23.4375 23.4375V21.4563L21.7217 22.4469C20.9744 22.8784 20.0188 22.6223 19.5873 21.875C19.1559 21.1277 19.4119 20.1721 20.1592 19.7406L21.875 18.75L20.1593 17.7594C19.4119 17.3279 19.1559 16.3723 19.5873 15.625C20.0188 14.8777 20.9744 14.6216 21.7218 15.0531L23.4375 16.0437V14.0625C23.4375 13.1996 24.137 12.5 25 12.5ZM15.625 29.6875C15.625 28.8246 16.3246 28.125 17.1875 28.125H32.8125C33.6754 28.125 34.375 28.8246 34.375 29.6875C34.375 30.5504 33.6754 31.25 32.8125 31.25H17.1875C16.3246 31.25 15.625 30.5504 15.625 29.6875ZM15.625 35.9375C15.625 35.0746 16.3246 34.375 17.1875 34.375H32.8125C33.6754 34.375 34.375 35.0746 34.375 35.9375C34.375 36.8004 33.6754 37.5 32.8125 37.5H17.1875C16.3246 37.5 15.625 36.8004 15.625 35.9375Z" fill="#272A3A"/>
<path d="M9.375 0H40.625C44.0768 0 46.875 2.79822 46.875 6.25V43.75C46.875 47.2018 44.0768 50 40.625 50H9.375C5.92322 50 3.125 47.2018 3.125 43.75V40.625H6.25V43.75C6.25 45.4759 7.64911 46.875 9.375 46.875H40.625C42.3509 46.875 43.75 45.4759 43.75 43.75V6.25C43.75 4.52411 42.3509 3.125 40.625 3.125H9.375C7.64911 3.125 6.25 4.52411 6.25 6.25V9.375H3.125V6.25C3.125 2.79822 5.92322 0 9.375 0Z" fill="#272A3A"/>
<path d="M3.125 15.625V14.0625C3.125 13.1996 3.82456 12.5 4.6875 12.5C5.55045 12.5 6.25 13.1996 6.25 14.0625V15.625H7.8125C8.67544 15.625 9.375 16.3246 9.375 17.1875C9.375 18.0504 8.67544 18.75 7.8125 18.75H1.5625C0.699555 18.75 0 18.0504 0 17.1875C0 16.3246 0.699555 15.625 1.5625 15.625H3.125Z" fill="#272A3A"/>
<path d="M3.125 25V23.4375C3.125 22.5746 3.82456 21.875 4.6875 21.875C5.55045 21.875 6.25 22.5746 6.25 23.4375V25H7.8125C8.67544 25 9.375 25.6996 9.375 26.5625C9.375 27.4254 8.67544 28.125 7.8125 28.125H1.5625C0.699555 28.125 0 27.4254 0 26.5625C0 25.6996 0.699555 25 1.5625 25H3.125Z" fill="#272A3A"/>
<path d="M3.125 34.375V32.8125C3.125 31.9496 3.82456 31.25 4.6875 31.25C5.55045 31.25 6.25 31.9496 6.25 32.8125V34.375H7.8125C8.67544 34.375 9.375 35.0746 9.375 35.9375C9.375 36.8004 8.67544 37.5 7.8125 37.5H1.5625C0.699555 37.5 0 36.8004 0 35.9375C0 35.0746 0.699555 34.375 1.5625 34.375H3.125Z" fill="#272A3A"/>
</svg>
