<svg width="38" height="50" viewBox="0 0 38 50" fill="none" xmlns="http://www.w3.org/2000/svg">
<path fill-rule="evenodd" clip-rule="evenodd" d="M37.5 43.75V14.0625L23.4375 0H6.25C2.79822 0 0 2.79822 0 6.25V34.375H3.125V6.25C3.125 4.52411 4.52411 3.125 6.25 3.125H23.4375V9.375C23.4375 11.9638 25.5362 14.0625 28.125 14.0625H34.375V43.75C34.375 45.4759 32.9759 46.875 31.25 46.875H15.625V50H31.25C34.7018 50 37.5 47.2018 37.5 43.75Z" fill="#272A3A"/>
<path d="M8.40288 39.1623C7.16732 37.4802 6.4375 35.4034 6.4375 33.1562C6.4375 27.5471 10.9846 23 16.5938 23C22.2029 23 26.75 27.5471 26.75 33.1562C26.75 38.7654 22.2029 43.3125 16.5938 43.3125C14.346 43.3125 12.2687 42.5823 10.5863 41.3461L10.5877 41.3471C10.5416 41.4096 10.4903 41.4694 10.4337 41.526L4.41735 47.5424C3.80716 48.1525 2.81784 48.1525 2.20765 47.5424C1.59745 46.9322 1.59745 45.9428 2.20765 45.3326L8.22399 39.3163C8.28057 39.2597 8.34039 39.2084 8.40288 39.1623ZM8 33.1562C8 37.9024 11.8476 41.75 16.5938 41.75C21.3399 41.75 25.1875 37.9024 25.1875 33.1562C25.1875 28.4101 21.3399 24.5625 16.5938 24.5625C11.8476 24.5625 8 28.4101 8 33.1562Z" fill="#272A3A"/>
</svg>
