<svg width="52" height="50" viewBox="0 0 52 50" fill="none" xmlns="http://www.w3.org/2000/svg">
<path d="M9.67742 12.9032C9.67742 12.0125 10.3995 11.2903 11.2903 11.2903H30.6451C31.5359 11.2903 32.2581 12.0125 32.2581 12.9032C32.2581 13.794 31.5359 14.5161 30.6451 14.5161H11.2903C10.3995 14.5161 9.67742 13.794 9.67742 12.9032Z" fill="#272A3A"/>
<path d="M9.67742 19.3549C9.67742 18.4641 10.3995 17.7419 11.2903 17.7419H30.6451C31.5359 17.7419 32.2581 18.4641 32.2581 19.3549C32.2581 20.2456 31.5359 20.9678 30.6451 20.9678H11.2903C10.3995 20.9678 9.67742 20.2456 9.67742 19.3549Z" fill="#272A3A"/>
<path d="M9.67742 25.8065C9.67742 24.9157 10.3995 24.1936 11.2903 24.1936H30.6451C31.5359 24.1936 32.2581 24.9157 32.2581 25.8065C32.2581 26.6972 31.5359 27.4194 30.6451 27.4194H11.2903C10.3995 27.4194 9.67742 26.6972 9.67742 25.8065Z" fill="#272A3A"/>
<path d="M9.67742 32.2581C9.67742 31.3673 10.3995 30.6452 11.2903 30.6452H30.6451C31.5359 30.6452 32.2581 31.3673 32.2581 32.2581C32.2581 33.1489 31.5359 33.871 30.6451 33.871H11.2903C10.3995 33.871 9.67742 33.1489 9.67742 32.2581Z" fill="#272A3A"/>
<path d="M9.67742 38.7097C9.67742 37.8189 10.3995 37.0968 11.2903 37.0968H30.6451C31.5359 37.0968 32.2581 37.8189 32.2581 38.7097C32.2581 39.6005 31.5359 40.3226 30.6451 40.3226H11.2903C10.3995 40.3226 9.67742 39.6005 9.67742 38.7097Z" fill="#272A3A"/>
<path d="M37.0968 11.2903C36.206 11.2903 35.4839 12.0125 35.4839 12.9032C35.4839 13.794 36.206 14.5161 37.0968 14.5161H40.3226C41.2133 14.5161 41.9355 13.794 41.9355 12.9032C41.9355 12.0125 41.2133 11.2903 40.3226 11.2903H37.0968Z" fill="#272A3A"/>
<path d="M37.0968 17.7419C36.206 17.7419 35.4839 18.4641 35.4839 19.3549C35.4839 20.2456 36.206 20.9678 37.0968 20.9678H40.3226C41.2133 20.9678 41.9355 20.2456 41.9355 19.3549C41.9355 18.4641 41.2133 17.7419 40.3226 17.7419H37.0968Z" fill="#272A3A"/>
<path d="M37.0968 24.1936C36.206 24.1936 35.4839 24.9157 35.4839 25.8065C35.4839 26.6972 36.206 27.4194 37.0968 27.4194H40.3226C41.2133 27.4194 41.9355 26.6972 41.9355 25.8065C41.9355 24.9157 41.2133 24.1936 40.3226 24.1936H37.0968Z" fill="#272A3A"/>
<path d="M37.0968 30.6452C36.206 30.6452 35.4839 31.3673 35.4839 32.2581C35.4839 33.1489 36.206 33.871 37.0968 33.871H40.3226C41.2133 33.871 41.9355 33.1489 41.9355 32.2581C41.9355 31.3673 41.2133 30.6452 40.3226 30.6452H37.0968Z" fill="#272A3A"/>
<path d="M37.0968 37.0968C36.206 37.0968 35.4839 37.8189 35.4839 38.7097C35.4839 39.6005 36.206 40.3226 37.0968 40.3226H40.3226C41.2133 40.3226 41.9355 39.6005 41.9355 38.7097C41.9355 37.8189 41.2133 37.0968 40.3226 37.0968H37.0968Z" fill="#272A3A"/>
<path d="M7.5921 0.472428C7.2255 0.105823 6.70501 -0.0622014 6.19325 0.0208462C5.68149 0.103894 5.24085 0.427888 5.00899 0.89161L3.39608 4.11742C3.2841 4.34138 3.22581 4.58833 3.22581 4.83873V46.7742H1.6129C0.722121 46.7742 0 47.4963 0 48.3871C0 49.2779 0.722121 50 1.6129 50H50C50.8908 50 51.6129 49.2779 51.6129 48.3871C51.6129 47.4963 50.8908 46.7742 50 46.7742H48.3871V4.83873C48.3871 4.58833 48.3288 4.34138 48.2168 4.11742L46.6039 0.89161C46.372 0.427888 45.9314 0.103894 45.4196 0.0208462C44.9079 -0.0622014 44.3874 0.105823 44.0208 0.472428L41.9355 2.55774L39.8502 0.472428C39.2203 -0.15745 38.199 -0.15745 37.5692 0.472428L35.4839 2.55774L33.3985 0.472428C32.7687 -0.15745 31.7474 -0.15745 31.1176 0.472428L29.0322 2.55774L26.9469 0.472428C26.3171 -0.15745 25.2958 -0.15745 24.6659 0.472428L22.5806 2.55774L20.4953 0.472428C19.8654 -0.15745 18.8442 -0.15745 18.2143 0.472428L16.129 2.55774L14.0437 0.472428C13.4138 -0.15745 12.3926 -0.15745 11.7627 0.472428L9.67742 2.55774L7.5921 0.472428ZM6.89347 4.33577L8.53692 5.97922C9.1668 6.6091 10.188 6.6091 10.8179 5.97922L12.9032 3.89391L14.9885 5.97922C15.6184 6.6091 16.6396 6.6091 17.2695 5.97922L19.3548 3.89391L21.4401 5.97922C22.07 6.6091 23.0913 6.6091 23.7211 5.97922L25.8064 3.89391L27.8918 5.97922C28.5216 6.6091 29.5429 6.6091 30.1727 5.97922L32.2581 3.89391L34.3434 5.97922C34.9732 6.6091 35.9945 6.6091 36.6244 5.97922L38.7097 3.89391L40.795 5.97922C41.4249 6.6091 42.4461 6.6091 43.076 5.97922L44.7194 4.33577L45.1613 5.21948V46.7742H6.45161V5.21948L6.89347 4.33577Z" fill="#272A3A"/>
</svg>
