<svg width="27" height="29" viewBox="0 0 27 29" fill="none" xmlns="http://www.w3.org/2000/svg">
<rect width="27" height="29" rx="8" fill="#128B9B"/>
<path d="M7.4375 16.6625C7.67912 16.6625 7.875 16.8584 7.875 17.1V19.2875C7.875 19.7708 8.26675 20.1625 8.75 20.1625H19.25C19.7332 20.1625 20.125 19.7708 20.125 19.2875V17.1C20.125 16.8584 20.3209 16.6625 20.5625 16.6625C20.8041 16.6625 21 16.8584 21 17.1V19.2875C21 20.254 20.2165 21.0375 19.25 21.0375H8.75C7.7835 21.0375 7 20.254 7 19.2875V17.1C7 16.8584 7.19588 16.6625 7.4375 16.6625Z" fill="white"/>
<path d="M13.6906 18.3719C13.8615 18.5427 14.1385 18.5427 14.3094 18.3719L16.9344 15.7469C17.1052 15.576 17.1052 15.299 16.9344 15.1281C16.7635 14.9573 16.4865 14.9573 16.3156 15.1281L14.4375 17.0063V9.3125C14.4375 9.07088 14.2416 8.875 14 8.875C13.7584 8.875 13.5625 9.07088 13.5625 9.3125V17.0063L11.6844 15.1281C11.5135 14.9573 11.2365 14.9573 11.0656 15.1281C10.8948 15.299 10.8948 15.576 11.0656 15.7469L13.6906 18.3719Z" fill="white"/>
</svg>
