<svg width="16" height="17" viewBox="0 0 16 17" fill="none" xmlns="http://www.w3.org/2000/svg">
<path d="M5 4.22168C4.72386 4.22168 4.5 4.44554 4.5 4.72168C4.5 4.99782 4.72386 5.22168 5 5.22168H11C11.2761 5.22168 11.5 4.99782 11.5 4.72168C11.5 4.44554 11.2761 4.22168 11 4.22168H5Z" fill="#CBD0DD"/>
<path d="M4.5 6.72168C4.5 6.44554 4.72386 6.22168 5 6.22168H11C11.2761 6.22168 11.5 6.44554 11.5 6.72168C11.5 6.99782 11.2761 7.22168 11 7.22168H5C4.72386 7.22168 4.5 6.99782 4.5 6.72168Z" fill="#CBD0DD"/>
<path d="M5 8.22168C4.72386 8.22168 4.5 8.44554 4.5 8.72168C4.5 8.99782 4.72386 9.22168 5 9.22168H11C11.2761 9.22168 11.5 8.99782 11.5 8.72168C11.5 8.44554 11.2761 8.22168 11 8.22168H5Z" fill="#CBD0DD"/>
<path d="M5 10.2217C4.72386 10.2217 4.5 10.4455 4.5 10.7217C4.5 10.9978 4.72386 11.2217 5 11.2217H8C8.27614 11.2217 8.5 10.9978 8.5 10.7217C8.5 10.4455 8.27614 10.2217 8 10.2217H5Z" fill="#CBD0DD"/>
<path d="M2 2.22168C2 1.11711 2.89543 0.22168 4 0.22168H12C13.1046 0.22168 14 1.11711 14 2.22168V14.2217C14 15.3263 13.1046 16.2217 12 16.2217H4C2.89543 16.2217 2 15.3262 2 14.2217V2.22168ZM12 1.22168H4C3.44772 1.22168 3 1.66939 3 2.22168V14.2217C3 14.774 3.44772 15.2217 4 15.2217H12C12.5523 15.2217 13 14.774 13 14.2217V2.22168C13 1.66939 12.5523 1.22168 12 1.22168Z" fill="#CBD0DD"/>
</svg>
