<svg width="13" height="16" viewBox="0 0 13 16" fill="none" xmlns="http://www.w3.org/2000/svg">
<path d="M10.333 1C10.8853 1 11.333 1.44772 11.333 2V12.7553C11.333 12.7553 10.333 11 6.33301 11C2.33301 11 1.33301 12.7554 1.33301 12.7554V2C1.33301 1.44772 1.78072 1 2.33301 1H10.333ZM2.33301 0C1.22844 0 0.333008 0.895431 0.333008 2V14C0.333008 15.1046 1.22844 16 2.33301 16H10.333C11.4376 16 12.333 15.1046 12.333 14V2C12.333 0.895431 11.4376 0 10.333 0H2.33301Z" fill="#CBD0DD"/>
<path d="M6.33301 10C7.98986 10 9.33301 8.65685 9.33301 7C9.33301 5.34315 7.98986 4 6.33301 4C4.67615 4 3.33301 5.34315 3.33301 7C3.33301 8.65685 4.67615 10 6.33301 10Z" fill="#CBD0DD"/>
</svg>
