<svg width="44" height="50" viewBox="0 0 44 50" fill="none" xmlns="http://www.w3.org/2000/svg">
<path d="M32.8125 50C38.8531 50 43.75 45.1031 43.75 39.0625C43.75 33.0219 38.8531 28.125 32.8125 28.125C26.7719 28.125 21.875 33.0219 21.875 39.0625C21.875 45.1031 26.7719 50 32.8125 50ZM38.0586 35.9602L33.8859 42.9146C33.1014 44.2221 31.297 44.4443 30.2189 43.3661L27.8014 40.9486C27.1912 40.3384 27.1912 39.3491 27.8014 38.7389C28.4116 38.1287 29.4009 38.1287 30.0111 38.7389L31.721 40.4488L35.3789 34.3523C35.8229 33.6124 36.7827 33.3724 37.5227 33.8164C38.2626 34.2604 38.5026 35.2202 38.0586 35.9602Z" fill="#272A3A"/>
<path d="M0 3.125C0 1.39911 1.39911 0 3.125 0H34.375C36.1009 0 37.5 1.39911 37.5 3.125V23.4375C37.5 24.3004 36.8004 25 35.9375 25C35.0746 25 34.375 24.3004 34.375 23.4375V3.125H3.125V46.875H12.5V39.0625C12.5 38.1996 13.1996 37.5 14.0625 37.5H18.75V50H3.125C1.39911 50 0 48.6009 0 46.875V3.125Z" fill="#272A3A"/>
<path d="M7.8125 6.25C6.94956 6.25 6.25 6.94956 6.25 7.8125V10.9375C6.25 11.8004 6.94956 12.5 7.8125 12.5H10.9375C11.8004 12.5 12.5 11.8004 12.5 10.9375V7.8125C12.5 6.94956 11.8004 6.25 10.9375 6.25H7.8125Z" fill="#272A3A"/>
<path d="M17.1875 6.25C16.3246 6.25 15.625 6.94956 15.625 7.8125V10.9375C15.625 11.8004 16.3246 12.5 17.1875 12.5H20.3125C21.1754 12.5 21.875 11.8004 21.875 10.9375V7.8125C21.875 6.94956 21.1754 6.25 20.3125 6.25H17.1875Z" fill="#272A3A"/>
<path d="M26.5625 6.25C25.6996 6.25 25 6.94956 25 7.8125V10.9375C25 11.8004 25.6996 12.5 26.5625 12.5H29.6875C30.5504 12.5 31.25 11.8004 31.25 10.9375V7.8125C31.25 6.94956 30.5504 6.25 29.6875 6.25H26.5625Z" fill="#272A3A"/>
<path d="M7.8125 15.625C6.94956 15.625 6.25 16.3246 6.25 17.1875V20.3125C6.25 21.1754 6.94956 21.875 7.8125 21.875H10.9375C11.8004 21.875 12.5 21.1754 12.5 20.3125V17.1875C12.5 16.3246 11.8004 15.625 10.9375 15.625H7.8125Z" fill="#272A3A"/>
<path d="M17.1875 15.625C16.3246 15.625 15.625 16.3246 15.625 17.1875V20.3125C15.625 21.1754 16.3246 21.875 17.1875 21.875H20.3125C21.1754 21.875 21.875 21.1754 21.875 20.3125V17.1875C21.875 16.3246 21.1754 15.625 20.3125 15.625H17.1875Z" fill="#272A3A"/>
<path d="M26.5625 15.625C25.6996 15.625 25 16.3246 25 17.1875V20.3125C25 21.1754 25.6996 21.875 26.5625 21.875H29.6875C30.5504 21.875 31.25 21.1754 31.25 20.3125V17.1875C31.25 16.3246 30.5504 15.625 29.6875 15.625H26.5625Z" fill="#272A3A"/>
<path d="M7.8125 25C6.94956 25 6.25 25.6996 6.25 26.5625V29.6875C6.25 30.5504 6.94956 31.25 7.8125 31.25H10.9375C11.8004 31.25 12.5 30.5504 12.5 29.6875V26.5625C12.5 25.6996 11.8004 25 10.9375 25H7.8125Z" fill="#272A3A"/>
<path d="M17.1875 25C16.3246 25 15.625 25.6996 15.625 26.5625V29.6875C15.625 30.5504 16.3246 31.25 17.1875 31.25H20.3125C21.1754 31.25 21.875 30.5504 21.875 29.6875V26.5625C21.875 25.6996 21.1754 25 20.3125 25H17.1875Z" fill="#272A3A"/>
</svg>
