<svg width="38" height="50" viewBox="0 0 38 50" fill="none" xmlns="http://www.w3.org/2000/svg">
<path d="M14.0625 6.25C13.1996 6.25 12.5 6.94955 12.5 7.8125C12.5 8.67544 13.1996 9.375 14.0625 9.375H23.4375C24.3004 9.375 25 8.67544 25 7.8125C25 6.94955 24.3004 6.25 23.4375 6.25H14.0625Z" fill="#272A3A"/>
<path d="M28.125 25C28.125 30.1777 23.9277 34.375 18.75 34.375C13.5723 34.375 9.375 30.1777 9.375 25C9.375 19.8223 13.5723 15.625 18.75 15.625C23.9277 15.625 28.125 19.8223 28.125 25Z" fill="#272A3A"/>
<path d="M7.8125 0C3.49778 0 0 3.49778 0 7.8125V43.75C0 47.2018 2.79822 50 6.25 50H31.25C34.7018 50 37.5 47.2018 37.5 43.75V7.8125C37.5 3.49777 34.0022 0 29.6875 0H7.8125ZM3.125 7.8125C3.125 5.22367 5.22367 3.125 7.8125 3.125H29.6875C32.2763 3.125 34.375 5.22366 34.375 7.8125V41.5469C33.7976 41.0768 33.0059 40.5373 31.9488 40.0087C29.3501 38.7094 25.1962 37.5 18.75 37.5C12.3038 37.5 8.14989 38.7094 5.55123 40.0087C4.4941 40.5373 3.70241 41.0768 3.125 41.5469V7.8125Z" fill="#272A3A"/>
</svg>
