<svg width="14" height="12" viewBox="0 0 14 12" fill="none" xmlns="http://www.w3.org/2000/svg">
<path d="M5.25 6C5.94619 6 6.61387 5.68393 7.10616 5.12132C7.59844 4.55871 7.875 3.79565 7.875 3C7.875 2.20435 7.59844 1.44129 7.10616 0.87868C6.61387 0.316071 5.94619 0 5.25 0C4.55381 0 3.88613 0.316071 3.39384 0.87868C2.90156 1.44129 2.625 2.20435 2.625 3C2.625 3.79565 2.90156 4.55871 3.39384 5.12132C3.88613 5.68393 4.55381 6 5.25 6ZM0.875 12C0.875 12 0 12 0 11C0 10 0.875 7 5.25 7C9.625 7 10.5 10 10.5 11C10.5 12 9.625 12 9.625 12H0.875ZM9.625 1.5C9.625 1.36739 9.67109 1.24021 9.75314 1.14645C9.83519 1.05268 9.94647 1 10.0625 1H13.5625C13.6785 1 13.7898 1.05268 13.8719 1.14645C13.9539 1.24021 14 1.36739 14 1.5C14 1.63261 13.9539 1.75979 13.8719 1.85355C13.7898 1.94732 13.6785 2 13.5625 2H10.0625C9.94647 2 9.83519 1.94732 9.75314 1.85355C9.67109 1.75979 9.625 1.63261 9.625 1.5ZM10.0625 4C9.94647 4 9.83519 4.05268 9.75314 4.14645C9.67109 4.24021 9.625 4.36739 9.625 4.5C9.625 4.63261 9.67109 4.75979 9.75314 4.85355C9.83519 4.94732 9.94647 5 10.0625 5H13.5625C13.6785 5 13.7898 4.94732 13.8719 4.85355C13.9539 4.75979 14 4.63261 14 4.5C14 4.36739 13.9539 4.24021 13.8719 4.14645C13.7898 4.05268 13.6785 4 13.5625 4H10.0625ZM11.8125 7C11.6965 7 11.5852 7.05268 11.5031 7.14645C11.4211 7.24021 11.375 7.36739 11.375 7.5C11.375 7.63261 11.4211 7.75979 11.5031 7.85355C11.5852 7.94732 11.6965 8 11.8125 8H13.5625C13.6785 8 13.7898 7.94732 13.8719 7.85355C13.9539 7.75979 14 7.63261 14 7.5C14 7.36739 13.9539 7.24021 13.8719 7.14645C13.7898 7.05268 13.6785 7 13.5625 7H11.8125ZM11.8125 10C11.6965 10 11.5852 10.0527 11.5031 10.1464C11.4211 10.2402 11.375 10.3674 11.375 10.5C11.375 10.6326 11.4211 10.7598 11.5031 10.8536C11.5852 10.9473 11.6965 11 11.8125 11H13.5625C13.6785 11 13.7898 10.9473 13.8719 10.8536C13.9539 10.7598 14 10.6326 14 10.5C14 10.3674 13.9539 10.2402 13.8719 10.1464C13.7898 10.0527 13.6785 10 13.5625 10H11.8125Z" fill="#128B9B"/>
</svg>
