<svg width="38" height="50" viewBox="0 0 38 50" fill="none" xmlns="http://www.w3.org/2000/svg">
<path d="M37.5 43.75V14.0625L23.4375 0H6.25C2.79822 0 0 2.79822 0 6.25V43.75C0 47.2018 2.79822 50 6.25 50H31.25C34.7018 50 37.5 47.2018 37.5 43.75ZM23.4375 9.375C23.4375 11.9638 25.5362 14.0625 28.125 14.0625H34.375V28.125H3.125V6.25C3.125 4.52411 4.52411 3.125 6.25 3.125H23.4375V9.375ZM3.125 37.5V31.25H9.375V37.5H3.125ZM3.125 40.625H9.375V46.875H6.25C4.52411 46.875 3.125 45.4759 3.125 43.75V40.625ZM12.5 46.875V40.625H34.375V43.75C34.375 45.4759 32.9759 46.875 31.25 46.875H12.5ZM34.375 37.5H12.5V31.25H34.375V37.5Z" fill="#272A3A"/>
<path fill-rule="evenodd" clip-rule="evenodd" d="M14.7652 11.6098C14.9116 11.7563 14.9116 11.9937 14.7652 12.1402L12.5152 14.3902C12.4448 14.4605 12.3495 14.5 12.25 14.5C12.1505 14.5 12.0552 14.4605 11.9848 14.3902L10.8598 13.2652C10.7134 13.1187 10.7134 12.8813 10.8598 12.7348C11.0063 12.5884 11.2437 12.5884 11.3902 12.7348L12.25 13.5947L14.2348 11.6098C14.3813 11.4634 14.6187 11.4634 14.7652 11.6098Z" fill="#272A3A"/>
<path d="M14.7047 8.8845L14.0139 8.17707L14.5505 7.6531L15.0169 8.13073L15.6844 8.12278C16.9014 8.10828 17.8917 9.09857 17.8772 10.3156L17.8693 10.9831L18.3469 11.4495C19.2177 12.2998 19.2177 13.7002 18.3469 14.5505L17.8693 15.0169L17.8772 15.6844C17.8917 16.9014 16.9014 17.8917 15.6844 17.8772L15.0169 17.8693L14.5505 18.3469C13.7002 19.2177 12.2998 19.2177 11.4495 18.3469L10.9831 17.8693L10.3156 17.8772C9.09857 17.8917 8.10828 16.9014 8.12278 15.6844L8.13073 15.0169L7.6531 14.5505C6.7823 13.7002 6.7823 12.2998 7.6531 11.4495L8.13073 10.9831L8.12278 10.3156C8.10828 9.09857 9.09857 8.10828 10.3156 8.12278L10.9831 8.13073L11.4495 7.6531C12.2998 6.7823 13.7002 6.7823 14.5505 7.6531L14.0139 8.17707C13.4579 7.60764 12.5421 7.60764 11.9861 8.17707L11.2953 8.8845L10.3066 8.87272C9.51081 8.86324 8.86324 9.51081 8.87272 10.3066L8.8845 11.2953L8.17707 11.9861C7.60764 12.5421 7.60764 13.4579 8.17707 14.0139L8.8845 14.7047L8.87272 15.6934C8.86324 16.4892 9.51081 17.1368 10.3066 17.1273L11.2953 17.1155L11.9861 17.8229C12.5421 18.3924 13.4579 18.3924 14.0139 17.8229L14.7047 17.1155L15.6934 17.1273C16.4892 17.1368 17.1368 16.4892 17.1273 15.6934L17.1155 14.7047L17.8229 14.0139C18.3924 13.4579 18.3924 12.5421 17.8229 11.9861L17.1155 11.2953L17.1273 10.3066C17.1368 9.51081 16.4892 8.86324 15.6934 8.87272L14.7047 8.8845Z" fill="#272A3A"/>
</svg>
