<svg width="27" height="29" viewBox="0 0 27 29" fill="none" xmlns="http://www.w3.org/2000/svg">
<rect width="27" height="29" rx="8" fill="#25B003"/>
<path d="M7.4375 16.6625C7.67912 16.6625 7.875 16.8584 7.875 17.1V19.2875C7.875 19.7708 8.26675 20.1625 8.75 20.1625H19.25C19.7332 20.1625 20.125 19.7708 20.125 19.2875V17.1C20.125 16.8584 20.3209 16.6625 20.5625 16.6625C20.8041 16.6625 21 16.8584 21 17.1V19.2875C21 20.254 20.2165 21.0375 19.25 21.0375H8.75C7.7835 21.0375 7 20.254 7 19.2875V17.1C7 16.8584 7.19588 16.6625 7.4375 16.6625Z" fill="white"/>
<path d="M13.6906 9.00314C13.8615 8.83229 14.1385 8.83229 14.3094 9.00314L16.9344 11.6281C17.1052 11.799 17.1052 12.076 16.9344 12.2469C16.7635 12.4177 16.4865 12.4177 16.3156 12.2469L14.4375 10.3687V18.0625C14.4375 18.3041 14.2416 18.5 14 18.5C13.7584 18.5 13.5625 18.3041 13.5625 18.0625V10.3687L11.6844 12.2469C11.5135 12.4177 11.2365 12.4177 11.0656 12.2469C10.8948 12.076 10.8948 11.799 11.0656 11.6281L13.6906 9.00314Z" fill="white"/>
</svg>
