<svg width="58" height="50" viewBox="0 0 58 50" fill="none" xmlns="http://www.w3.org/2000/svg">
<path fill-rule="evenodd" clip-rule="evenodd" d="M50 0H7.14286C3.19797 0 0 3.19797 0 7.14286C0 11.0877 3.19797 14.2857 7.14286 14.2857L7.14286 42.8571C7.14286 46.802 10.3408 50 14.2857 50H42.8571C46.802 50 50 46.802 50 42.8571V14.2857C53.9449 14.2857 57.1429 11.0877 57.1429 7.14286C57.1429 3.19797 53.9449 0 50 0ZM10.7143 42.8571L10.7143 7.14286H32.1429V46.4286H14.2857C12.3133 46.4286 10.7143 44.8296 10.7143 42.8571ZM39.2857 7.14286L39.2857 46.4286H42.8571C44.8296 46.4286 46.4286 44.8296 46.4286 42.8571V7.14286H39.2857Z" fill="#272A3A"/>
</svg>
