<svg width="32" height="32" viewBox="0 0 32 32" fill="none" xmlns="http://www.w3.org/2000/svg">
<rect width="32" height="32" rx="5" fill="#E9EBEC"/>
<path fill-rule="evenodd" clip-rule="evenodd" d="M22 9H10C8.89543 9 8 9.89543 8 11C8 12.1046 8.89543 13 10 13L10 21C10 22.1046 10.8954 23 12 23H20C21.1046 23 22 22.1046 22 21V13C23.1046 13 24 12.1046 24 11C24 9.89543 23.1046 9 22 9ZM11 21L11 11H17V22H12C11.4477 22 11 21.5523 11 21ZM19 11L19 22H20C20.5523 22 21 21.5523 21 21V11H19Z" fill="#128B9B"/>
</svg>
