<svg width="32" height="32" viewBox="0 0 32 32" fill="none" xmlns="http://www.w3.org/2000/svg">
<rect width="32" height="32" rx="5" fill="#E9EBEC"/>
<path d="M16 8L22.6099 11H23.5C23.7762 11 24 11.2239 24 11.5L24 13.5C24 13.7761 23.7761 14 23.5 14H23L23 21C23.2295 21 23.4295 21.1574 23.4851 21.38L23.9851 23.38C24.0224 23.5294 23.9889 23.6886 23.8941 23.81C23.7994 23.9314 23.654 24 23.5 24H8.50004C8.34607 24 8.20069 23.9314 8.10593 23.81C8.01118 23.6886 7.97762 23.5294 8.01496 23.38L8.51496 21.38C8.57061 21.1574 8.7706 21 9.00004 21L9 14H8.5C8.22386 14 8 13.7761 8 13.5L8.00004 11.5C8.00004 11.2239 8.22389 11 8.50004 11H9.39022L16 8ZM11.7765 11H20.2235L16 9L11.7765 11ZM10 14L10 21H11L11 14H10ZM12 14L12 21H14.5L14.5 14H12ZM15.5 14L15.5 21H16.5L16.5 14H15.5ZM17.5 14L17.5 21H20L20 14H17.5ZM21 14L21 21H22V14H21ZM23 13V12H9.00004V13H23ZM22.6096 22H9.39042L9.14042 23H22.8596L22.6096 22Z" fill="#128B9B"/>
</svg>
