<svg width="32" height="32" viewBox="0 0 32 32" fill="none" xmlns="http://www.w3.org/2000/svg">
<rect width="32" height="32" rx="5" fill="#E9EBEC"/>
<path d="M11.6539 9.32849C11.4034 9.00649 10.9274 8.97686 10.639 9.26531L9.60508 10.2992C9.1216 10.7827 8.94387 11.4677 9.1551 12.0685C10.0034 14.4812 11.3922 16.7467 13.3227 18.6773C15.2533 20.6078 17.5188 21.9966 19.9315 22.8449C20.5323 23.0561 21.2173 22.8784 21.7008 22.3949L22.7347 21.361C23.0231 21.0726 22.9935 20.5966 22.6715 20.3461L20.3653 18.5524C20.2008 18.4245 19.9866 18.3793 19.7845 18.4298L17.5954 18.9771C17.0008 19.1257 16.3718 18.9515 15.9384 18.5181L13.4819 16.0616C13.0485 15.6282 12.8743 14.9992 13.0229 14.4046L13.5702 12.2155C13.6207 12.0134 13.5755 11.7992 13.4476 11.6347L11.6539 9.32849ZM9.88477 8.51108C10.6269 7.76896 11.8515 7.8452 12.4958 8.67363L14.2895 10.9798C14.6187 11.403 14.735 11.9541 14.605 12.4742L14.0577 14.6633C13.9999 14.8944 14.0677 15.1389 14.2361 15.3073L16.6927 17.7639C16.8611 17.9323 17.1056 18.0001 17.3367 17.9423L19.5258 17.395C20.0459 17.265 20.597 17.3813 21.0202 17.7105L23.3264 19.5042C24.1548 20.1485 24.231 21.3731 23.4889 22.1152L22.455 23.1492C21.7153 23.8889 20.6089 24.2137 19.5778 23.8512C17.0175 22.9511 14.6144 21.4774 12.5685 19.4315C10.5226 17.3856 9.04895 14.9825 8.14884 12.4222C7.78632 11.3911 8.11113 10.2847 8.85085 9.545L9.88477 8.51108Z" fill="#128B9B"/>
</svg>
