<svg width="32" height="32" viewBox="0 0 32 32" fill="none" xmlns="http://www.w3.org/2000/svg">
<rect width="32" height="32" rx="5" fill="#E9EBEC"/>
<path d="M9 16C9 19.866 12.134 23 16 23C19.866 23 23 19.866 23 16C23 12.134 19.866 9 16 9C12.134 9 9 12.134 9 16ZM24 16C24 20.4183 20.4183 24 16 24C11.5817 24 8 20.4183 8 16C8 11.5817 11.5817 8 16 8C20.4183 8 24 11.5817 24 16ZM16.1465 12.9922C14.9336 12.9922 14.2188 13.9121 14.2188 15.4941V16.5547C14.2188 18.125 14.9219 19.0156 16.1465 19.0156C17.125 19.0156 17.7871 18.4297 17.875 17.5977H19.1699V17.6914C19.0703 19.1387 17.8164 20.1582 16.1406 20.1582C14.0488 20.1582 12.8711 18.8223 12.8711 16.5547V15.4824C12.8711 13.2207 14.0723 11.8438 16.1406 11.8438C17.8223 11.8438 19.0762 12.8984 19.1699 14.416V14.5039H17.875C17.7871 13.625 17.1074 12.9922 16.1465 12.9922Z" fill="#128B9B"/>
</svg>
