<svg width="32" height="32" viewBox="0 0 32 32" fill="none" xmlns="http://www.w3.org/2000/svg">
<rect width="32" height="32" rx="5" fill="#E9EBEC"/>
<path d="M9 16C9 19.866 12.134 23 16 23C19.866 23 23 19.866 23 16C23 12.134 19.866 9 16 9C12.134 9 9 12.134 9 16ZM24 16C24 20.4183 20.4183 24 16 24C11.5817 24 8 20.4183 8 16C8 11.5817 11.5817 8 16 8C20.4183 8 24 11.5817 24 16Z" fill="#128B9B"/>
<path d="M13.656 20C13.44 20 13.272 19.944 13.152 19.832C13.04 19.712 12.984 19.544 12.984 19.328V12.212C12.984 11.996 13.04 11.832 13.152 11.72C13.272 11.6 13.44 11.54 13.656 11.54H15.972C17.364 11.54 18.436 11.904 19.188 12.632C19.948 13.352 20.328 14.396 20.328 15.764C20.328 16.444 20.232 17.048 20.04 17.576C19.848 18.104 19.564 18.548 19.188 18.908C18.82 19.26 18.368 19.532 17.832 19.724C17.296 19.908 16.676 20 15.972 20H13.656ZM14.232 18.956H15.9C16.428 18.956 16.884 18.892 17.268 18.764C17.66 18.628 17.988 18.428 18.252 18.164C18.516 17.9 18.712 17.568 18.84 17.168C18.968 16.768 19.032 16.3 19.032 15.764C19.032 14.7 18.768 13.904 18.24 13.376C17.72 12.848 16.94 12.584 15.9 12.584H14.232V18.956Z" fill="#128B9B"/>
</svg>
