<svg width="18" height="12" viewBox="0 0 18 12" fill="none" xmlns="http://www.w3.org/2000/svg">
<path d="M15.826 1C16.1095 1 16.3394 1.22386 16.3394 1.5V10.5C16.3394 10.7761 16.1095 11 15.826 11H2.47944C2.19594 11 1.96611 10.7761 1.96611 10.5V1.5C1.96611 1.22386 2.19594 1 2.47944 1H15.826ZM2.47944 0C1.62893 0 0.939453 0.671573 0.939453 1.5V10.5C0.939453 11.3284 1.62893 12 2.47944 12H15.826C16.6765 12 17.366 11.3284 17.366 10.5V1.5C17.366 0.671573 16.6765 0 15.826 0H2.47944Z" fill="#128B9B"/>
<path d="M6.07275 6C6.07275 5.72386 6.30258 5.5 6.58608 5.5H13.7727C14.0562 5.5 14.286 5.72386 14.286 6C14.286 6.27614 14.0562 6.5 13.7727 6.5H6.58608C6.30258 6.5 6.07275 6.27614 6.07275 6Z" fill="#128B9B"/>
<path d="M6.07275 3.5C6.07275 3.22386 6.30258 3 6.58608 3H13.7727C14.0562 3 14.286 3.22386 14.286 3.5C14.286 3.77614 14.0562 4 13.7727 4H6.58608C6.30258 4 6.07275 3.77614 6.07275 3.5Z" fill="#128B9B"/>
<path d="M6.07275 8.5C6.07275 8.22386 6.30258 8 6.58608 8H13.7727C14.0562 8 14.286 8.22386 14.286 8.5C14.286 8.77614 14.0562 9 13.7727 9H6.58608C6.30258 9 6.07275 8.77614 6.07275 8.5Z" fill="#128B9B"/>
<path d="M5.04609 3.5C5.04609 3.77614 4.81627 4 4.53276 4C4.24926 4 4.01943 3.77614 4.01943 3.5C4.01943 3.22386 4.24926 3 4.53276 3C4.81627 3 5.04609 3.22386 5.04609 3.5Z" fill="#128B9B"/>
<path d="M5.04609 6C5.04609 6.27614 4.81627 6.5 4.53276 6.5C4.24926 6.5 4.01943 6.27614 4.01943 6C4.01943 5.72386 4.24926 5.5 4.53276 5.5C4.81627 5.5 5.04609 5.72386 5.04609 6Z" fill="#128B9B"/>
<path d="M5.04609 8.5C5.04609 8.77614 4.81627 9 4.53276 9C4.24926 9 4.01943 8.77614 4.01943 8.5C4.01943 8.22386 4.24926 8 4.53276 8C4.81627 8 5.04609 8.22386 5.04609 8.5Z" fill="#128B9B"/>
</svg>
