<svg width="17" height="12" viewBox="0 0 17 12" fill="none" xmlns="http://www.w3.org/2000/svg">
<path d="M15.2579 1C15.5377 1 15.7646 1.22386 15.7646 1.5V10.5C15.7646 10.7761 15.5377 11 15.2579 11H2.08446C1.80464 11 1.57779 10.7761 1.57779 10.5V1.5C1.57779 1.22386 1.80464 1 2.08446 1H15.2579ZM2.08446 0C1.24498 0 0.564453 0.671573 0.564453 1.5V10.5C0.564453 11.3284 1.24498 12 2.08446 12H15.2579C16.0974 12 16.7779 11.3284 16.7779 10.5V1.5C16.7779 0.671573 16.0974 0 15.2579 0H2.08446Z" fill="#CBD0DD"/>
<path d="M3.60447 6.5C3.60447 6.22386 3.83132 6 4.11114 6H13.2312C13.511 6 13.7379 6.22386 13.7379 6.5C13.7379 6.77614 13.511 7 13.2312 7H4.11114C3.83132 7 3.60447 6.77614 3.60447 6.5ZM3.60447 8.5C3.60447 8.22386 3.83132 8 4.11114 8H10.1912C10.471 8 10.6979 8.22386 10.6979 8.5C10.6979 8.77614 10.471 9 10.1912 9H4.11114C3.83132 9 3.60447 8.77614 3.60447 8.5Z" fill="#CBD0DD"/>
<path d="M3.60447 3.5C3.60447 3.22386 3.83132 3 4.11114 3H13.2312C13.511 3 13.7379 3.22386 13.7379 3.5V4.5C13.7379 4.77614 13.511 5 13.2312 5H4.11114C3.83132 5 3.60447 4.77614 3.60447 4.5V3.5Z" fill="#CBD0DD"/>
</svg>
