<svg width="32" height="32" viewBox="0 0 32 32" fill="none" xmlns="http://www.w3.org/2000/svg">
<rect width="32" height="32" rx="5" fill="#E9EBEC"/>
<path d="M20.1658 16.9398C19.6418 18.0015 18.9325 19.0601 18.2058 20.01C17.4813 20.957 16.7544 21.7768 16.2077 22.3605C16.135 22.438 16.0657 22.5113 16 22.5801C15.9343 22.5113 15.865 22.438 15.7923 22.3605C15.2456 21.7768 14.5187 20.957 13.7942 20.01C13.0675 19.0601 12.3582 18.0015 11.8342 16.9398C11.3048 15.8671 11 14.8619 11 14C11 11.2386 13.2386 9 16 9C18.7614 9 21 11.2386 21 14C21 14.8619 20.6952 15.8671 20.1658 16.9398ZM16 24C16 24 22 18.3137 22 14C22 10.6863 19.3137 8 16 8C12.6863 8 10 10.6863 10 14C10 18.3137 16 24 16 24Z" fill="#128B9B"/>
<path d="M16 16C14.8954 16 14 15.1046 14 14C14 12.8954 14.8954 12 16 12C17.1046 12 18 12.8954 18 14C18 15.1046 17.1046 16 16 16ZM16 17C17.6569 17 19 15.6569 19 14C19 12.3431 17.6569 11 16 11C14.3431 11 13 12.3431 13 14C13 15.6569 14.3431 17 16 17Z" fill="#128B9B"/>
</svg>
