<svg width="32" height="32" viewBox="0 0 32 32" fill="none" xmlns="http://www.w3.org/2000/svg">
<rect width="32" height="32" rx="5" fill="#E9EBEC"/>
<path d="M16.4706 9.11765C16.1765 8.96078 15.8235 8.96078 15.5294 9.11765L9.52941 12.3176C9.20355 12.4914 9 12.8307 9 13.2V14.0169L14.75 17.4669L16 16.7169L17.25 17.4669L23 14.0169V13.2C23 12.8307 22.7965 12.4914 22.4706 12.3176L16.4706 9.11765ZM23 15.1831L18.2218 18.05L23 20.9169V15.1831ZM22.9653 22.0623L16 17.8831L9.03474 22.0623C9.14995 22.4873 9.53846 22.8 10 22.8H22C22.4615 22.8 22.85 22.4873 22.9653 22.0623ZM9 20.9169L13.7782 18.05L9 15.1831V20.9169ZM15.0588 8.23529C15.6471 7.92157 16.3529 7.92157 16.9412 8.23529L22.9412 11.4353C23.5929 11.7829 24 12.4614 24 13.2V21.8C24 22.9046 23.1046 23.8 22 23.8H10C8.89543 23.8 8 22.9046 8 21.8V13.2C8 12.4614 8.4071 11.7829 9.05882 11.4353L15.0588 8.23529Z" fill="#128B9B"/>
</svg>
