<svg width="32" height="32" viewBox="0 0 32 32" fill="none" xmlns="http://www.w3.org/2000/svg">
<rect width="32" height="32" rx="5" fill="#E9EBEC"/>
<path fill-rule="evenodd" clip-rule="evenodd" d="M13 10C13 8.89543 13.8954 8 15 8H16.3333C17.4379 8 18.3333 8.89543 18.3333 10V11.3333C18.3333 12.4379 17.4379 13.3333 16.3333 13.3333V14.6667H19.6667C20.0349 14.6667 20.3333 14.9651 20.3333 15.3333V16.6667C20.3333 17.0349 20.0349 17.3333 19.6667 17.3333C19.2985 17.3333 19 17.0349 19 16.6667V16H12.3333V16.6667C12.3333 17.0349 12.0349 17.3333 11.6667 17.3333C11.2985 17.3333 11 17.0349 11 16.6667V15.3333C11 14.9651 11.2985 14.6667 11.6667 14.6667H15V13.3333C13.8954 13.3333 13 12.4379 13 11.3333V10ZM16.3333 12C16.7015 12 17 11.7015 17 11.3333V10C17 9.63181 16.7015 9.33333 16.3333 9.33333H15C14.6318 9.33333 14.3333 9.63181 14.3333 10V11.3333C14.3333 11.7015 14.6318 12 15 12H16.3333ZM9 20.6667C9 19.5621 9.89543 18.6667 11 18.6667H12.3333C13.4379 18.6667 14.3333 19.5621 14.3333 20.6667V22C14.3333 23.1046 13.4379 24 12.3333 24H11C9.89543 24 9 23.1046 9 22V20.6667ZM11 20C10.6318 20 10.3333 20.2985 10.3333 20.6667V22C10.3333 22.3682 10.6318 22.6667 11 22.6667H12.3333C12.7015 22.6667 13 22.3682 13 22V20.6667C13 20.2985 12.7015 20 12.3333 20H11ZM17 20.6667C17 19.5621 17.8954 18.6667 19 18.6667H20.3333C21.4379 18.6667 22.3333 19.5621 22.3333 20.6667V22C22.3333 23.1046 21.4379 24 20.3333 24H19C17.8954 24 17 23.1046 17 22V20.6667ZM19 20C18.6318 20 18.3333 20.2985 18.3333 20.6667V22C18.3333 22.3682 18.6318 22.6667 19 22.6667H20.3333C20.7015 22.6667 21 22.3682 21 22V20.6667C21 20.2985 20.7015 20 20.3333 20H19Z" fill="#128B9B"/>
</svg>
