<svg width="32" height="32" viewBox="0 0 32 32" fill="none" xmlns="http://www.w3.org/2000/svg">
<rect width="32" height="32" rx="5" fill="#E9EBEC"/>
<path d="M16 8C11.5817 8 8 11.5817 8 16C8 20.4183 11.5817 24 16 24C20.4183 24 24 20.4183 24 16C24 11.5817 20.4183 8 16 8ZM10.0404 12.3262C10.3655 13.6548 12.5719 14.8653 13.7565 15.5153C14.2372 15.779 14.5496 15.9504 14.5 16C14.4193 16.0807 14.3377 16.1584 14.2578 16.2345C13.8424 16.6299 13.4715 16.983 13.5 17.5C13.535 18.1344 14.1178 18.3237 14.7142 18.5174C15.2915 18.7049 15.8816 18.8966 16 19.5C16.0819 19.9174 15.9255 20.4881 15.7797 21.0197C15.5652 21.8022 15.3739 22.5 16 22.5C17.5 22 19.7984 19.3144 20 17.5C20.1381 16.2574 18 15.5 16.5 15C16.022 14.8407 15.7445 15.0811 15.5097 15.2845C15.3376 15.4336 15.1884 15.5628 15 15.5C14.5547 15.3516 12.5 13.5 13.5 13C14.2808 12.6096 14.4519 12.8288 14.7274 13.1817C14.8048 13.2808 14.8904 13.3904 15 13.5C15.6085 13.8043 15.6616 13.368 15.7225 12.8671C15.7618 12.5448 15.8042 12.1958 16 12C16.4336 11.5664 17.2648 11.2088 18.0277 10.8805C18.7403 10.5739 19.3933 10.2929 19.607 9.99964C21.6402 11.2245 23 13.4534 23 16C23 19.866 19.866 23 16 23C12.134 23 9 19.866 9 16C9 14.6526 9.38071 13.3941 10.0404 12.3262Z" fill="#128B9B"/>
</svg>
